<svg xmlns="http://www.w3.org/2000/svg" width="33" height="33" viewBox="0 0 33 33" fill="none">
  <g clip-path="url(#clip0_4053_6413)">
    <path d="M5.41057 2.90384C4.82333 3.21222 4.20966 3.95399 3.27943 5.39079C2.59876 6.4426 2.23224 7.12245 2.14697 7.54944C4.92012 9.16676 14.6766 14.8103 16.8212 16.0512L20.1383 10.9248L6.60908 2.96101C6.24401 2.74633 5.78574 2.70672 5.41057 2.90384Z" fill="#F7CE9E"/>
    <path d="M20.7572 10.8614L31.4239 25.8115L32.0179 24.8935L21.3514 9.94336L20.7572 10.8614Z" fill="#D1833B"/>
    <path d="M20.1383 10.9248L30.28 25.1391L26.9629 30.2656L16.8212 16.0512L20.1383 10.9248Z" fill="#CCA480"/>
    <path d="M4.5697 1.98619C4.94487 1.78907 5.40314 1.82868 5.76846 2.04336L20.7573 10.8618L21.3513 9.94377C21.3513 9.94377 6.09823 0.822419 5.48624 0.720179C3.68968 0.419155 2.19574 3.09754 1.33637 4.42427C0.513742 5.6955 -0.561076 7.35648 0.391008 7.94548C0.587718 8.06693 16.6475 17.2132 16.6475 17.2132L17.2415 16.2949C17.2415 16.2949 1.50522 7.19398 1.40938 7.1157C1.07577 6.84267 1.39137 6.09141 2.43856 4.47314C3.36831 3.03634 3.9827 2.29457 4.5697 1.98619Z" fill="#F5B659"/>
    <path d="M17.2417 16.2944L27.9082 31.2446L27.3142 32.1629L16.6475 17.2127L17.2417 16.2944Z" fill="#D1833B"/>
    <path d="M25.7811 30.0142L16.6475 17.2127C16.6475 17.2127 0.587663 8.06648 0.390954 7.94479C0.315084 7.89702 0.248132 7.83667 0.193043 7.76641L0.181274 7.75977L10.824 22.6777L10.8348 22.6841C10.8941 22.7684 10.9699 22.8402 11.0577 22.8952C11.2544 23.0167 27.3142 32.1629 27.3142 32.1629L25.7811 30.0142Z" fill="#F0A35B"/>
    <path d="M20.7573 10.8615L5.76843 2.04304C5.40311 1.82836 4.94484 1.78875 4.56968 1.98587C3.98267 2.29425 3.36877 3.03602 2.43854 4.47282C1.39134 6.0911 1.07478 6.84235 1.40936 7.11539C1.49582 7.18655 14.323 14.6064 16.8212 16.0512C14.6766 14.8106 4.92011 9.16681 2.146 7.54973C2.23126 7.12274 2.59778 6.44265 3.27846 5.39108C4.2082 3.95427 4.82235 3.21274 5.4096 2.90413C5.78476 2.707 6.24303 2.74662 6.60811 2.9613L20.1383 10.9248L30.2795 25.1384L31.424 25.8116L20.7573 10.8615Z" fill="#B36620"/>
    <g style="mix-blend-mode:multiply">
      <path d="M20.7573 10.8615L5.76843 2.04304C5.40311 1.82836 4.94484 1.78875 4.56968 1.98587C3.98267 2.29425 3.36877 3.03602 2.43854 4.47282C1.39134 6.0911 1.07478 6.84235 1.40936 7.11539C1.49582 7.18655 14.323 14.6064 16.8212 16.0512C14.6766 14.8106 4.92011 9.16681 2.146 7.54973C2.23126 7.12274 2.59778 6.44265 3.27846 5.39108C4.2082 3.95427 4.82235 3.21274 5.4096 2.90413C5.78476 2.707 6.24303 2.74662 6.60811 2.9613L20.1383 10.9248L30.2795 25.1384L31.424 25.8116L20.7573 10.8615Z" fill="#D4BEA5"/>
    </g>
    <g style="mix-blend-mode:multiply">
      <path d="M20.1382 10.9249L17.226 15.4272C17.226 15.4272 4.98415 8.34469 2.41972 6.84668C2.27561 7.13323 2.18482 7.36665 2.14807 7.54978C4.92002 9.16687 15.0968 15.054 17.2414 16.2944L27.0802 30.0842L30.2809 25.1392L20.1382 10.9249Z" fill="#D4BEA5"/>
    </g>
    <g style="mix-blend-mode:multiply">
      <path d="M25.7811 30.0142L16.6475 17.2127C16.6475 17.2127 0.587663 8.06648 0.390954 7.94479C0.315084 7.89702 0.248132 7.83667 0.193043 7.76641L0.181274 7.75977L10.824 22.6777L10.8348 22.6841C10.8941 22.7684 10.9699 22.8402 11.0577 22.8952C11.2544 23.0167 27.3142 32.1629 27.3142 32.1629L25.7811 30.0142Z" fill="#FEEBD7"/>
    </g>
    <g style="mix-blend-mode:multiply">
      <path d="M20.7572 10.8614L31.4239 25.8115L32.0179 24.8935L21.3514 9.94336L20.7572 10.8614Z" fill="#D4BEA5"/>
    </g>
    <g style="mix-blend-mode:multiply">
      <path d="M17.2417 16.2944L27.9082 31.2446L27.3142 32.1629L16.6475 17.2127L17.2417 16.2944Z" fill="#D4BEA5"/>
    </g>
    <g style="mix-blend-mode:multiply">
      <path d="M2.43854 4.47314C1.39134 6.09142 1.07478 6.84267 1.40936 7.11571L2.14696 7.55005C2.23222 7.12306 2.59874 6.44297 3.27942 5.3914L2.43854 4.47314Z" fill="#D4BEA5"/>
    </g>
  </g>
  <defs>
    <clipPath id="clip0_4053_6413">
      <rect width="32" height="31.4667" fill="white" transform="translate(0.0179443 0.696289)"/>
    </clipPath>
  </defs>
</svg>