<svg xmlns="http://www.w3.org/2000/svg" width="41" height="40" viewBox="0 0 41 40" fill="none">
  <g clip-path="url(#clip0_4052_5816)">
    <path fill-rule="evenodd" clip-rule="evenodd" d="M29.0833 18.75C29.0833 13.9206 11.5833 13.9206 11.5833 18.75C11.5833 19.4406 11.024 20 10.3333 20C9.64272 20 9.08334 19.4406 9.08334 18.75V8.75C9.08334 5.29813 11.8815 2.5 15.3333 2.5H25.3333C28.7852 2.5 31.5833 5.29813 31.5833 8.75V18.75C31.5833 19.4406 31.024 20 30.3333 20C29.6427 20 29.0833 19.4406 29.0833 18.75ZM29.0833 11.6831V8.75C29.0833 6.67875 27.4046 5 25.3333 5H15.3333C13.2621 5 11.5833 6.67875 11.5833 8.75V11.6831C13.6458 9.13187 27.0208 9.13187 29.0833 11.6831Z" fill="#83D792"/>
    <path fill-rule="evenodd" clip-rule="evenodd" d="M22.8333 35.625H25.3333C28.7852 35.625 31.5833 32.8269 31.5833 29.375V18.75C31.5833 18.06 31.0233 17.5 30.3333 17.5C29.6433 17.5 29.0833 18.06 29.0833 18.75V29.375C29.0833 31.4462 27.4046 33.125 25.3333 33.125H22.8333C22.1433 33.125 21.5833 33.685 21.5833 34.375C21.5833 35.065 22.1433 35.625 22.8333 35.625Z" fill="#83D792"/>
    <path fill-rule="evenodd" clip-rule="evenodd" d="M24.0833 32.5C24.0833 31.8094 23.524 31.25 22.8333 31.25H17.8333C17.1427 31.25 16.5833 31.8094 16.5833 32.5V36.25C16.5833 36.9406 17.1427 37.5 17.8333 37.5H22.8333C23.524 37.5 24.0833 36.9406 24.0833 36.25V32.5Z" fill="#3EB489"/>
    <path fill-rule="evenodd" clip-rule="evenodd" d="M10.254 13.7506C12.0965 10.0469 15.9202 7.5 20.3333 7.5C24.7465 7.5 28.5702 10.0469 30.4127 13.7506C33.4809 13.7931 35.9583 16.2969 35.9583 19.375C35.9583 22.4794 33.4377 25 30.3333 25C30.1227 25 29.9146 24.9881 29.7096 24.9656C27.6934 27.9994 24.2452 30 20.3333 30C16.4215 30 12.9733 27.9994 10.9571 24.9656C10.7521 24.9881 10.544 25 10.3333 25C7.22897 25 4.70834 22.4794 4.70834 19.375C4.70834 16.2969 7.18583 13.7931 10.254 13.7506Z" fill="#3EB489"/>
    <path fill-rule="evenodd" clip-rule="evenodd" d="M24.0846 18.751C24.0846 20.821 22.4046 22.501 20.3346 22.501C18.2646 22.501 16.5846 20.821 16.5846 18.751C16.5846 18.061 16.0246 17.501 15.3346 17.501C14.6446 17.501 14.0846 18.061 14.0846 18.751C14.0846 22.2003 16.8852 25.001 20.3346 25.001C23.7839 25.001 26.5846 22.2003 26.5846 18.751C26.5846 18.061 26.0246 17.501 25.3346 17.501C24.6446 17.501 24.0846 18.061 24.0846 18.751Z" fill="white"/>
  </g>
  <defs>
    <clipPath id="clip0_4052_5816">
      <rect width="40" height="40" fill="white" transform="translate(0.333344)"/>
    </clipPath>
  </defs>
</svg>