<svg xmlns="http://www.w3.org/2000/svg" width="41" height="40" viewBox="0 0 41 40" fill="none">
  <path d="M20.0416 28.75H14.7199C13.7254 28.75 12.7715 29.1451 12.0683 29.8484L10.6666 31.25L13.7916 34.375L15.3005 32.8661C15.535 32.6316 15.8529 32.5 16.1844 32.5H20.0416C21.0772 32.5 21.9166 31.6605 21.9166 30.625C21.9166 29.5895 21.0772 28.75 20.0416 28.75Z" fill="#FAB991"/>
  <path d="M29.0505 27.8662C28.5623 27.3779 27.7708 27.3779 27.2827 27.8662L22.6489 32.5001H16.1844C15.853 32.5001 15.535 32.6318 15.3005 32.8662L13.7916 34.3751L15.6666 36.2501L16.9166 35.0001H22.9078C23.4087 35.0001 23.8795 34.805 24.2336 34.4508L29.0505 29.6339C29.5387 29.1458 29.5387 28.3544 29.0505 27.8662Z" fill="#3EB489"/>
  <path d="M20.0416 31.6666H19.625C19.2798 31.6666 19 31.3868 19 31.0416V30.2083C19 29.8631 19.2798 29.5833 19.625 29.5833H20.0416C20.617 29.5833 21.0833 30.0497 21.0833 30.6249C21.0833 31.2003 20.617 31.6666 20.0416 31.6666Z" fill="#3EB489"/>
  <path d="M10.4836 31.0668L13.7916 34.3749L10.6666 37.4999H3.16663L9.59967 31.0668C9.84374 30.8228 10.2395 30.8228 10.4836 31.0668Z" fill="#555A6E"/>
  <path d="M13.7916 34.375L15.8497 36.433C16.0937 36.6771 16.0937 37.0729 15.8497 37.317L15.6666 37.5H10.6666L13.7916 34.375Z" fill="#463C4B"/>
  <path d="M6.91663 28.75H36.9166C37.607 28.75 38.1666 28.1904 38.1666 27.5V3.75C38.1666 3.05961 37.607 2.5 36.9166 2.5H6.91663C6.22624 2.5 5.66663 3.05961 5.66663 3.75V27.5C5.66663 28.1904 6.22624 28.75 6.91663 28.75Z" fill="#3EB489"/>
  <path d="M26.9166 28.75H6.91663C6.22624 28.75 5.66663 28.1904 5.66663 27.5V3.75C5.66663 3.05961 6.22624 2.5 6.91663 2.5H26.9166C27.607 2.5 28.1666 3.05961 28.1666 3.75V27.5C28.1666 28.1904 27.607 28.75 26.9166 28.75Z" fill="#83D792"/>
  <path d="M20.0416 7.5H13.7916C13.4465 7.5 13.1666 7.22016 13.1666 6.875V2.5H20.6666V6.875C20.6666 7.22016 20.3868 7.5 20.0416 7.5Z" fill="#E6E6EB"/>
  <path d="M25.0416 26.25H21.2916C20.9465 26.25 20.6666 25.9702 20.6666 25.625V23.125C20.6666 22.7798 20.9465 22.5 21.2916 22.5H25.0416C25.3868 22.5 25.6666 22.7798 25.6666 23.125V25.625C25.6666 25.9702 25.3868 26.25 25.0416 26.25Z" fill="#3EB489"/>
</svg>