<svg xmlns="http://www.w3.org/2000/svg" width="41" height="40" viewBox="0 0 41 40" fill="none">
  <path d="M7.54163 18.125H33.7916V36.875H7.54163V18.125ZM6.29163 9.375H35.0416V18.125H6.29163V9.375Z" fill="#3EB489"/>
  <path d="M23.7916 9.37491H17.5416V8.12491C17.5416 7.79339 17.6733 7.47545 17.9077 7.24103C18.1422 7.00661 18.4601 6.87491 18.7916 6.87491H22.5416C22.8731 6.87491 23.1911 7.00661 23.4255 7.24103C23.6599 7.47545 23.7916 7.79339 23.7916 8.12491V9.37491ZM27.9191 3.13491C26.2591 3.26241 25.0416 4.77741 25.0416 6.44241V6.87491C25.0416 7.20643 24.9099 7.52438 24.6755 7.7588C24.4411 7.99322 24.1231 8.12491 23.7916 8.12491V9.37491H27.9741C29.6391 9.37491 31.1541 8.15741 31.2816 6.49741C31.3176 6.0467 31.2553 5.59354 31.0991 5.16925C30.9428 4.74496 30.6963 4.35964 30.3766 4.03993C30.0569 3.72021 29.6716 3.47371 29.2473 3.31745C28.823 3.1612 28.3698 3.09892 27.9191 3.13491ZM13.4141 3.13491C15.0741 3.26241 16.2916 4.77741 16.2916 6.44241V6.87491C16.2916 7.20643 16.4233 7.52438 16.6577 7.7588C16.8922 7.99322 17.2101 8.12491 17.5416 8.12491V9.37491H13.3591C11.6941 9.37491 10.1791 8.15741 10.0516 6.49741C10.0156 6.0467 10.0779 5.59354 10.2342 5.16925C10.3904 4.74496 10.6369 4.35964 10.9566 4.03993C11.2764 3.72021 11.6617 3.47371 12.086 3.31745C12.5103 3.1612 12.9634 3.09892 13.4141 3.13491ZM16.2916 9.37491H12.5416C11.8786 9.37491 11.2427 9.63831 10.7739 10.1071C10.305 10.576 10.0416 11.2119 10.0416 11.8749V14.3749L11.9166 13.1249L13.7916 14.3749V11.8749C13.7916 11.2119 14.055 10.576 14.5239 10.1071C14.9927 9.63831 15.6286 9.37491 16.2916 9.37491ZM25.0416 9.37491H28.7916C29.4547 9.37491 30.0906 9.63831 30.5594 10.1071C31.0282 10.576 31.2916 11.2119 31.2916 11.8749V14.3749L29.4166 13.1249L27.5416 14.3749V11.8749C27.5416 11.2119 27.2782 10.576 26.8094 10.1071C26.3406 9.63831 25.7047 9.37491 25.0416 9.37491ZM17.5416 9.37491H23.7916V18.1249H17.5416V9.37491ZM18.7916 18.1249H22.5416V36.8749H18.7916V18.1249Z" fill="#83D792"/>
  <path d="M33.7916 37.5H7.54163C7.37587 37.5 7.21689 37.4342 7.09968 37.3169C6.98247 37.1997 6.91663 37.0408 6.91663 36.875V18.125C6.91663 17.9592 6.98247 17.8003 7.09968 17.6831C7.21689 17.5658 7.37587 17.5 7.54163 17.5H33.7916C33.9574 17.5 34.1164 17.5658 34.2336 17.6831C34.3508 17.8003 34.4166 17.9592 34.4166 18.125V36.875C34.4166 37.0408 34.3508 37.1997 34.2336 37.3169C34.1164 37.4342 33.9574 37.5 33.7916 37.5ZM8.16663 36.25H33.1666V18.75H8.16663V36.25Z" fill="black"/>
  <path d="M35.0416 18.75H6.29163C6.12587 18.75 5.96689 18.6842 5.84968 18.5669C5.73247 18.4497 5.66663 18.2908 5.66663 18.125V9.375C5.66663 9.20924 5.73247 9.05027 5.84968 8.93306C5.96689 8.81585 6.12587 8.75 6.29163 8.75H35.0416C35.2074 8.75 35.3664 8.81585 35.4836 8.93306C35.6008 9.05027 35.6666 9.20924 35.6666 9.375V18.125C35.6666 18.2908 35.6008 18.4497 35.4836 18.5669C35.3664 18.6842 35.2074 18.75 35.0416 18.75ZM6.91663 17.5H34.4166V10H6.91663V17.5Z" fill="black"/>
  <path d="M23.7916 10H17.5416C17.3759 10 17.2169 9.93415 17.0997 9.81694C16.9825 9.69973 16.9166 9.54076 16.9166 9.375V8.125C16.9166 7.09125 17.7579 6.25 18.7916 6.25H22.5416C23.5754 6.25 24.4166 7.09125 24.4166 8.125V9.375C24.4166 9.54076 24.3508 9.69973 24.2336 9.81694C24.1164 9.93415 23.9574 10 23.7916 10ZM18.1666 8.75H23.1666V8.125C23.1666 7.78125 22.8854 7.5 22.5416 7.5H18.7916C18.4479 7.5 18.1666 7.78125 18.1666 8.125V8.75Z" fill="black"/>
  <path d="M25.3991 10H20.0416C19.8759 10 19.7169 9.93415 19.5997 9.81694C19.4825 9.69973 19.4166 9.54076 19.4166 9.375C19.4166 9.20924 19.4825 9.05027 19.5997 8.93306C19.7169 8.81585 19.8759 8.75 20.0416 8.75H25.3991C26.4329 8.75 27.2741 7.90875 27.2741 6.875C27.2741 6.70924 27.34 6.55027 27.4572 6.43306C27.5744 6.31585 27.7334 6.25 27.8991 6.25C28.0649 6.25 28.2239 6.31585 28.3411 6.43306C28.4583 6.55027 28.5241 6.70924 28.5241 6.875C28.5241 8.59875 27.1229 10 25.3991 10Z" fill="black"/>
  <path d="M27.9752 9.99996H23.7915C23.6257 9.99996 23.4667 9.93411 23.3495 9.8169C23.2323 9.69969 23.1665 9.54072 23.1665 9.37496V8.12496C23.1665 7.9592 23.2323 7.80023 23.3495 7.68302C23.4667 7.56581 23.6257 7.49996 23.7915 7.49996C24.1352 7.49996 24.4165 7.21871 24.4165 6.87496V6.44121C24.4165 4.38621 25.934 2.66121 27.8715 2.51121C28.9615 2.40996 30.0427 2.82246 30.8177 3.59746C31.5927 4.37246 31.9902 5.44621 31.904 6.54371C31.7552 8.48246 30.029 9.99996 27.9752 9.99996ZM24.4165 8.74996H27.9752C29.3802 8.74996 30.559 7.73871 30.659 6.44996C30.6873 6.08911 30.6371 5.72642 30.512 5.38679C30.3868 5.04716 30.1896 4.73865 29.934 4.48246C29.6784 4.22594 29.3699 4.0282 29.0302 3.903C28.6904 3.77779 28.3274 3.72813 27.9665 3.75746C26.6777 3.85746 25.6665 5.03621 25.6665 6.44121V6.87496C25.6665 7.68996 25.144 8.38496 24.4165 8.64246V8.74996ZM21.2915 9.99996H15.934C15.1054 9.9993 14.3109 9.66984 13.725 9.08393C13.1391 8.49803 12.8096 7.70356 12.809 6.87496C12.809 6.7092 12.8748 6.55023 12.992 6.43302C13.1092 6.31581 13.2682 6.24996 13.434 6.24996C13.5997 6.24996 13.7587 6.31581 13.8759 6.43302C13.9931 6.55023 14.059 6.7092 14.059 6.87496C14.059 7.90871 14.9002 8.74996 15.934 8.74996H21.2915C21.4572 8.74996 21.6162 8.81581 21.7334 8.93302C21.8506 9.05023 21.9165 9.2092 21.9165 9.37496C21.9165 9.54072 21.8506 9.69969 21.7334 9.8169C21.6162 9.93411 21.4572 9.99996 21.2915 9.99996Z" fill="black"/>
  <path d="M17.5421 10H13.3583C11.3046 10 9.57835 8.48252 9.4296 6.54502C9.38669 6.00458 9.46159 5.46126 9.64913 4.95259C9.83668 4.44392 10.1324 3.98201 10.5158 3.59877C10.8971 3.21252 11.3587 2.91496 11.8679 2.72722C12.3771 2.53949 12.9214 2.46619 13.4621 2.51252C15.3996 2.66127 16.9171 4.38752 16.9171 6.44127V6.87502C16.9171 7.21877 17.1983 7.50002 17.5421 7.50002C17.7079 7.50002 17.8668 7.56587 17.984 7.68308C18.1013 7.80029 18.1671 7.95926 18.1671 8.12502V9.37502C18.1671 9.54078 18.1013 9.69975 17.984 9.81696C17.8668 9.93417 17.7079 10 17.5421 10ZM13.1721 3.75002C12.8266 3.74982 12.4849 3.82111 12.1683 3.95941C11.8517 4.09771 11.5672 4.30002 11.3326 4.55362C11.0981 4.80722 10.9185 5.10662 10.8053 5.43299C10.692 5.75935 10.6475 6.10563 10.6746 6.45002C10.7746 7.73877 11.9533 8.75002 13.3583 8.75002H16.9171V8.64252C16.1896 8.38502 15.6671 7.69002 15.6671 6.87502V6.44127C15.6671 5.03627 14.6558 3.85752 13.3671 3.75752C13.3022 3.75255 13.2372 3.75005 13.1721 3.75002Z" fill="black"/>
  <path d="M13.792 15C13.6687 15.0001 13.5482 14.9635 13.4457 14.895L11.917 13.8762L10.3882 14.895C10.3879 15.0026 10.3597 15.1083 10.3064 15.2018C10.2531 15.2953 10.1765 15.3735 10.0841 15.4286C9.9917 15.4838 9.88658 15.5141 9.77898 15.5166C9.67138 15.5191 9.56497 15.4937 9.47009 15.4429C9.3752 15.3921 9.29508 15.3176 9.2375 15.2267C9.17993 15.1357 9.14686 15.0314 9.14152 14.924C9.13617 14.8165 9.15873 14.7094 9.207 14.6132C9.25528 14.517 9.32762 14.435 9.41699 14.375V11.875C9.41699 10.1513 10.8182 8.75 12.542 8.75H16.292C16.4578 8.75 16.6167 8.81585 16.7339 8.93306C16.8511 9.05027 16.917 9.20924 16.917 9.375C16.917 9.54076 16.8511 9.69973 16.7339 9.81694C16.6167 9.93415 16.4578 10 16.292 10C15.2582 10 14.417 10.8412 14.417 11.875V14.375C14.4173 14.4572 14.4014 14.5386 14.3701 14.6146C14.3388 14.6905 14.2928 14.7596 14.2347 14.8177C14.1766 14.8758 14.1075 14.9218 14.0316 14.9531C13.9556 14.9844 13.8742 15.0003 13.792 15ZM11.917 12.5C12.0382 12.5 12.1582 12.535 12.2632 12.605L13.167 13.2062V11.875C13.167 11.1712 13.4007 10.5225 13.7932 10H12.542C11.5082 10 10.667 10.8412 10.667 11.875V13.2062L11.5707 12.605C11.6732 12.5365 11.7937 12.4999 11.917 12.5ZM31.292 15C31.1687 15.0001 31.0482 14.9635 30.9457 14.895L29.417 13.8762L27.8882 14.895C27.8879 15.0026 27.8597 15.1083 27.8064 15.2018C27.7531 15.2953 27.6765 15.3735 27.5841 15.4286C27.4917 15.4838 27.3866 15.5141 27.279 15.5166C27.1714 15.5191 27.065 15.4937 26.9701 15.4429C26.8752 15.3921 26.7951 15.3176 26.7375 15.2267C26.6799 15.1357 26.6469 15.0314 26.6415 14.924C26.6362 14.8165 26.6587 14.7094 26.707 14.6132C26.7553 14.517 26.8276 14.435 26.917 14.375V11.875C26.917 10.8412 26.0757 10 25.042 10C24.8762 10 24.7173 9.93415 24.6001 9.81694C24.4828 9.69973 24.417 9.54076 24.417 9.375C24.417 9.20924 24.4828 9.05027 24.6001 8.93306C24.7173 8.81585 24.8762 8.75 25.042 8.75H28.792C30.5157 8.75 31.917 10.1513 31.917 11.875V14.375C31.9173 14.4572 31.9014 14.5386 31.8701 14.6146C31.8388 14.6905 31.7928 14.7596 31.7347 14.8177C31.6766 14.8758 31.6075 14.9218 31.5316 14.9531C31.4556 14.9844 31.3742 15.0003 31.292 15ZM29.417 12.5C29.5382 12.5 29.6582 12.535 29.7632 12.605L30.667 13.2062V11.875C30.667 10.8412 29.8257 10 28.792 10H27.5407C27.9332 10.5225 28.167 11.1725 28.167 11.875V13.2062L29.0707 12.605C29.1732 12.5365 29.2937 12.4999 29.417 12.5Z" fill="black"/>
  <path d="M23.7916 18.75H17.5416C17.3759 18.75 17.2169 18.6842 17.0997 18.5669C16.9825 18.4497 16.9166 18.2908 16.9166 18.125V9.375C16.9166 9.20924 16.9825 9.05027 17.0997 8.93306C17.2169 8.81585 17.3759 8.75 17.5416 8.75H23.7916C23.9574 8.75 24.1164 8.81585 24.2336 8.93306C24.3508 9.05027 24.4166 9.20924 24.4166 9.375V18.125C24.4166 18.2908 24.3508 18.4497 24.2336 18.5669C24.1164 18.6842 23.9574 18.75 23.7916 18.75ZM18.1666 17.5H23.1666V10H18.1666V17.5Z" fill="black"/>
  <path d="M22.5416 37.5H18.7916C18.6259 37.5 18.4669 37.4342 18.3497 37.3169C18.2325 37.1997 18.1666 37.0408 18.1666 36.875V18.125C18.1666 17.9592 18.2325 17.8003 18.3497 17.6831C18.4669 17.5658 18.6259 17.5 18.7916 17.5H22.5416C22.7074 17.5 22.8664 17.5658 22.9836 17.6831C23.1008 17.8003 23.1666 17.9592 23.1666 18.125V36.875C23.1666 37.0408 23.1008 37.1997 22.9836 37.3169C22.8664 37.4342 22.7074 37.5 22.5416 37.5ZM19.4166 36.25H21.9166V18.75H19.4166V36.25Z" fill="black"/>
  <path d="M10.0416 35C10.3868 35 10.6666 34.7202 10.6666 34.375C10.6666 34.0298 10.3868 33.75 10.0416 33.75C9.69645 33.75 9.41663 34.0298 9.41663 34.375C9.41663 34.7202 9.69645 35 10.0416 35Z" fill="black"/>
  <path d="M12.5416 35C12.8868 35 13.1666 34.7202 13.1666 34.375C13.1666 34.0298 12.8868 33.75 12.5416 33.75C12.1964 33.75 11.9166 34.0298 11.9166 34.375C11.9166 34.7202 12.1964 35 12.5416 35Z" fill="black"/>
  <path d="M15.0416 35C15.3868 35 15.6666 34.7202 15.6666 34.375C15.6666 34.0298 15.3868 33.75 15.0416 33.75C14.6964 33.75 14.4166 34.0298 14.4166 34.375C14.4166 34.7202 14.6964 35 15.0416 35Z" fill="black"/>
</svg>