<svg xmlns="http://www.w3.org/2000/svg" width="33" height="37" viewBox="0 0 33 37" fill="none">
  <path d="M16.8503 4.97415L3.1178 13.5415L15.1843 32.8827L28.9167 24.3153L16.8503 4.97415Z" fill="white"/>
  <path d="M15.185 32.9202C15.1723 32.9202 15.1599 32.9139 15.1527 32.9023L3.08591 13.5613C3.08057 13.5527 3.07884 13.5424 3.08112 13.5326C3.0834 13.5227 3.08949 13.5142 3.09805 13.5089L16.8304 4.94132C16.839 4.93597 16.8493 4.93425 16.8592 4.93653C16.869 4.93881 16.8775 4.9449 16.8829 4.95347L28.9496 24.2944C28.955 24.303 28.9567 24.3133 28.9544 24.3232C28.9521 24.333 28.946 24.3415 28.9375 24.3469L15.2051 32.9144C15.1988 32.9183 15.1919 32.9202 15.185 32.9202ZM3.17065 13.5533L15.1971 32.8297L28.8649 24.3024L16.8384 5.02605L3.17065 13.5533Z" fill="#3A3140"/>
  <path d="M16.8503 4.97415L3.11786 13.5415L4.86332 16.3393L18.5958 7.77192L16.8503 4.97415Z" fill="#A39EFF"/>
  <path d="M4.86381 16.377C4.8511 16.377 4.83869 16.3706 4.83147 16.3591L3.08597 13.5613C3.08062 13.5527 3.0789 13.5424 3.08119 13.5326C3.08346 13.5227 3.08955 13.5142 3.09812 13.5089L16.8305 4.94132C16.839 4.93598 16.8494 4.93425 16.8592 4.93653C16.869 4.93881 16.8776 4.9449 16.8829 4.95346L18.6284 7.75121C18.6395 7.76904 18.6341 7.79252 18.6163 7.80365L4.88392 16.3712C4.87765 16.3751 4.87068 16.377 4.86381 16.377ZM3.17071 13.5533L4.87592 16.2865L18.5437 7.75922L16.8385 5.02606L3.17071 13.5533Z" fill="#3A3140"/>
  <path d="M8.16958 18.2187C8.15688 18.2187 8.14446 18.2123 8.13724 18.2008C8.12612 18.1829 8.13155 18.1594 8.14939 18.1483L18.7767 11.518C18.7945 11.5069 18.818 11.5123 18.8291 11.5301C18.8403 11.548 18.8348 11.5714 18.817 11.5826L8.18969 18.2129C8.18342 18.2168 8.17646 18.2187 8.16958 18.2187ZM9.54502 20.4233C9.53232 20.4233 9.51991 20.4169 9.51269 20.4054C9.50157 20.3875 9.50701 20.364 9.52484 20.3529L20.1522 13.7226C20.17 13.7115 20.1935 13.7169 20.2046 13.7347C20.2157 13.7526 20.2103 13.776 20.1925 13.7872L9.56514 20.4175C9.55887 20.4214 9.55191 20.4233 9.54502 20.4233ZM10.9205 22.6279C10.9078 22.6279 10.8954 22.6215 10.8881 22.61C10.877 22.5921 10.8825 22.5687 10.9003 22.5575L21.5276 15.9272C21.5454 15.9161 21.5689 15.9215 21.58 15.9393C21.5912 15.9572 21.5857 15.9807 21.5679 15.9918L10.9406 22.6221C10.9343 22.626 10.9274 22.6279 10.9205 22.6279ZM12.2959 24.8325C12.2832 24.8325 12.2708 24.8261 12.2636 24.8146C12.2525 24.7967 12.2579 24.7733 12.2757 24.7621L22.9031 18.1318C22.9209 18.1207 22.9444 18.1261 22.9555 18.1439C22.9666 18.1618 22.9612 18.1853 22.9433 18.1964L12.316 24.8267C12.3098 24.8306 12.3028 24.8325 12.2959 24.8325ZM13.6714 27.0371C13.6587 27.0371 13.6462 27.0308 13.639 27.0192C13.6279 27.0014 13.6333 26.9779 13.6512 26.9667L24.2785 20.3364C24.2963 20.3253 24.3198 20.3307 24.3309 20.3486C24.3421 20.3664 24.3366 20.3899 24.3188 20.401L13.6915 27.0313C13.6852 27.0353 13.6782 27.0371 13.6714 27.0371ZM15.0468 29.2417C15.0341 29.2417 15.0217 29.2354 15.0145 29.2238C15.0034 29.206 15.0088 29.1825 15.0266 29.1714L25.6539 22.541C25.6718 22.5299 25.6953 22.5353 25.7064 22.5532C25.7175 22.571 25.7121 22.5945 25.6942 22.6056L15.0669 29.2359C15.0607 29.2399 15.0537 29.2417 15.0468 29.2417Z" fill="#3A3140"/>
  <path d="M4.74519 13.3487C4.63838 13.4104 4.50181 13.3738 4.44015 13.267L3.34221 11.3653C3.28054 11.2585 3.31714 11.1219 3.42395 11.0602C3.53076 10.9986 3.66732 11.0352 3.72899 11.142L4.82693 13.0436C4.88859 13.1504 4.852 13.287 4.74519 13.3487Z" fill="#3A3140"/>
  <path d="M4.63414 13.4172C4.54374 13.4172 4.45571 13.3703 4.40735 13.2865L3.30942 11.3849C3.27451 11.3244 3.26524 11.254 3.28331 11.1865C3.30138 11.1191 3.34463 11.0627 3.40509 11.0278C3.46554 10.9929 3.53598 10.9836 3.60342 11.0017C3.67086 11.0198 3.72722 11.063 3.76213 11.1235L4.86006 13.0251C4.89497 13.0856 4.90424 13.156 4.88617 13.2235C4.8681 13.2909 4.82484 13.3473 4.76439 13.3822C4.72334 13.4059 4.67845 13.4172 4.63414 13.4172ZM3.53547 11.0688C3.50337 11.0688 3.4717 11.0773 3.44315 11.0937C3.4003 11.1185 3.36965 11.1584 3.35685 11.2062C3.34404 11.254 3.35061 11.3039 3.37536 11.3468L4.47328 13.2485C4.49802 13.2913 4.53797 13.322 4.58576 13.3348C4.63356 13.3476 4.68347 13.341 4.72633 13.3163C4.76918 13.2915 4.79983 13.2516 4.81264 13.2038C4.82545 13.156 4.81887 13.1061 4.79413 13.0632L3.6962 11.1615C3.67146 11.1187 3.63151 11.088 3.58372 11.0752C3.56775 11.071 3.55156 11.0688 3.53547 11.0688Z" fill="#3A3140"/>
  <path d="M6.64302 12.1749C6.53621 12.2365 6.39964 12.1999 6.33797 12.0931L5.24004 10.1914C5.17837 10.0846 5.21497 9.94807 5.32177 9.8864C5.42858 9.82473 5.56515 9.86133 5.62682 9.96814L6.72475 11.8698C6.78641 11.9766 6.74982 12.1132 6.64302 12.1749Z" fill="#3A3140"/>
  <path d="M6.53192 12.2428C6.50922 12.2428 6.48637 12.2399 6.46385 12.2338C6.39641 12.2158 6.34005 12.1725 6.30514 12.112L5.2072 10.2104C5.13515 10.0856 5.17806 9.92539 5.30288 9.85333C5.42769 9.78126 5.58786 9.82419 5.65992 9.949L6.75785 11.8507C6.79276 11.9111 6.80203 11.9816 6.78396 12.049C6.76589 12.1164 6.72264 12.1728 6.66218 12.2077C6.62191 12.231 6.57721 12.2428 6.53192 12.2428ZM5.43325 9.89447C5.40184 9.89447 5.37004 9.90245 5.34094 9.91926C5.25249 9.97033 5.22207 10.0839 5.27314 10.1723L6.37107 12.074C6.39581 12.1168 6.43576 12.1475 6.48355 12.1603C6.53134 12.1731 6.58126 12.1665 6.62412 12.1418C6.66697 12.117 6.69762 12.0771 6.71043 12.0293C6.72324 11.9815 6.71666 11.9316 6.69192 11.8887L5.59399 9.98705C5.55972 9.9277 5.49732 9.89447 5.43325 9.89447Z" fill="#3A3140"/>
  <path d="M8.44435 11.0005C8.33754 11.0622 8.20097 11.0256 8.1393 10.9188L7.04137 9.01713C6.9797 8.91032 7.0163 8.77375 7.1231 8.71209C7.22991 8.65042 7.36648 8.68701 7.42815 8.79382L8.52608 10.6955C8.58775 10.8023 8.55116 10.9389 8.44435 11.0005Z" fill="#3A3140"/>
  <path d="M8.33326 11.0684C8.24285 11.0684 8.15483 11.0215 8.10646 10.9377L7.00854 9.03605C6.93648 8.91124 6.97939 8.75107 7.10421 8.67901C7.22902 8.60696 7.38919 8.64986 7.46125 8.77468L8.55918 10.6764C8.63123 10.8012 8.58832 10.9613 8.4635 11.0334C8.42245 11.0571 8.37757 11.0684 8.33326 11.0684ZM7.23458 8.72016C7.20317 8.72016 7.17137 8.72814 7.14227 8.74494C7.05381 8.79601 7.02339 8.90953 7.07446 8.99799L8.17239 10.8997C8.22346 10.9881 8.33698 11.0185 8.42544 10.9675C8.51389 10.9164 8.54431 10.8029 8.49324 10.7144L7.39532 8.81274C7.36105 8.75338 7.29865 8.72016 7.23458 8.72016Z" fill="#3A3140"/>
  <path d="M10.3024 9.9024C10.1956 9.96406 10.0591 9.92747 9.9974 9.82066L8.89946 7.91899C8.8378 7.81218 8.87439 7.67561 8.9812 7.61394C9.08801 7.55227 9.22458 7.58887 9.28624 7.69568L10.3842 9.59735C10.4458 9.70415 10.4093 9.84073 10.3024 9.9024Z" fill="#3A3140"/>
  <path d="M10.1913 9.97038C10.1686 9.97038 10.1458 9.96739 10.1233 9.96136C10.0558 9.94329 9.99947 9.90004 9.96456 9.83958L8.86663 7.93791C8.79457 7.8131 8.83749 7.65293 8.9623 7.58087C9.08711 7.5088 9.24728 7.55173 9.31934 7.67654L10.4173 9.57822C10.4522 9.63867 10.4615 9.70912 10.4434 9.77655C10.4253 9.84399 10.3821 9.90035 10.3216 9.93526C10.2813 9.9585 10.2366 9.97038 10.1913 9.97038ZM9.09268 7.62202C9.06127 7.62202 9.02947 7.63 9.00037 7.6468C8.91191 7.69787 8.88149 7.8114 8.93256 7.89985L10.0305 9.80153C10.0552 9.84438 10.0952 9.87503 10.143 9.88783C10.1908 9.90063 10.2407 9.89406 10.2835 9.86932C10.3264 9.84458 10.357 9.80464 10.3698 9.75685C10.3827 9.70905 10.3761 9.65913 10.3513 9.61627L9.25341 7.7146C9.21915 7.65524 9.15675 7.62202 9.09268 7.62202Z" fill="#3A3140"/>
  <path d="M12.1307 8.74615C12.0239 8.80781 11.8873 8.77122 11.8256 8.66441L10.7277 6.76274C10.666 6.65593 10.7026 6.51936 10.8094 6.45769C10.9163 6.39602 11.0528 6.43262 11.1145 6.53943L12.2124 8.4411C12.2741 8.54791 12.2375 8.68449 12.1307 8.74615Z" fill="#3A3140"/>
  <path d="M12.0193 8.81412C11.9966 8.81412 11.9738 8.81114 11.9513 8.80511C11.8838 8.78703 11.8275 8.74379 11.7926 8.68333L10.6946 6.78165C10.6226 6.65685 10.6655 6.49668 10.7903 6.42461C10.9151 6.35256 11.0753 6.39547 11.1473 6.52028L12.2453 8.42196C12.2802 8.48242 12.2895 8.55286 12.2714 8.6203C12.2533 8.68773 12.2101 8.74409 12.1496 8.779C12.1093 8.80225 12.0646 8.81412 12.0193 8.81412ZM10.9207 6.46576C10.8893 6.46576 10.8575 6.47374 10.8284 6.49054C10.7399 6.54161 10.7095 6.65513 10.7606 6.74359L11.8585 8.64526C11.8832 8.68811 11.9232 8.71876 11.971 8.73157C12.0188 8.74438 12.0687 8.7378 12.1115 8.71306C12.2 8.66199 12.2304 8.54847 12.1793 8.46001L11.0814 6.55834C11.0471 6.49899 10.9847 6.46576 10.9207 6.46576Z" fill="#3A3140"/>
  <path d="M13.9577 7.62066C13.8509 7.68233 13.7143 7.64573 13.6527 7.53892L12.5547 5.63725C12.4931 5.53044 12.5297 5.39387 12.6365 5.3322C12.7433 5.27054 12.8798 5.30713 12.9415 5.41394L14.0395 7.31561C14.1011 7.42242 14.0645 7.55899 13.9577 7.62066Z" fill="#3A3140"/>
  <path d="M13.8464 7.6888C13.8236 7.6888 13.8008 7.68582 13.7783 7.67978C13.7108 7.66171 13.6545 7.61846 13.6196 7.558L12.5216 5.65633C12.4867 5.59587 12.4775 5.52543 12.4955 5.45799C12.5136 5.39056 12.5568 5.33419 12.6173 5.29929C12.6778 5.26438 12.7482 5.25511 12.8156 5.27317C12.8831 5.29124 12.9394 5.33449 12.9744 5.39495L14.0723 7.29663C14.1072 7.35708 14.1165 7.42752 14.0984 7.49496C14.0803 7.56239 14.0371 7.61876 13.9766 7.65367C13.9363 7.67691 13.8916 7.6888 13.8464 7.6888ZM12.7477 5.34032C12.7156 5.34032 12.6839 5.34874 12.6554 5.36521C12.6125 5.38995 12.5819 5.4299 12.5691 5.47769C12.5563 5.52548 12.5628 5.5754 12.5876 5.61825L13.6855 7.51993C13.7102 7.56278 13.7502 7.59343 13.798 7.60624C13.8458 7.61906 13.8957 7.61247 13.9385 7.58773C13.9814 7.56299 14.012 7.52304 14.0249 7.47525C14.0377 7.42746 14.0311 7.37754 14.0063 7.33469L12.9084 5.43301C12.8837 5.39016 12.8437 5.35951 12.7959 5.3467C12.78 5.34243 12.7638 5.34032 12.7477 5.34032Z" fill="#3A3140"/>
  <path d="M15.7712 6.48443C15.6644 6.5461 15.5278 6.5095 15.4661 6.40269L14.3682 4.50102C14.3065 4.39421 14.3431 4.25764 14.4499 4.19597C14.5568 4.13431 14.6933 4.1709 14.755 4.27771L15.8529 6.17938C15.9146 6.28618 15.878 6.42276 15.7712 6.48443Z" fill="#3A3140"/>
  <path d="M15.66 6.55225C15.5696 6.55225 15.4816 6.50538 15.4332 6.42161L14.3353 4.51994C14.3004 4.45948 14.2911 4.38905 14.3092 4.3216C14.3273 4.25417 14.3705 4.19781 14.431 4.1629C14.5558 4.09083 14.7159 4.13375 14.788 4.25856L15.8859 6.16024C15.9208 6.2207 15.9301 6.29113 15.912 6.35857C15.894 6.426 15.8507 6.48237 15.7903 6.51728C15.7492 6.54099 15.7043 6.55225 15.66 6.55225ZM14.5614 4.20394C14.5293 4.20394 14.4976 4.21236 14.469 4.22883C14.4262 4.25357 14.3955 4.29352 14.3827 4.34131C14.3699 4.3891 14.3765 4.43902 14.4012 4.48187L15.4992 6.38355C15.5502 6.472 15.6637 6.50243 15.7522 6.45135C15.7951 6.42661 15.8257 6.38667 15.8385 6.33888C15.8513 6.29108 15.8447 6.24116 15.82 6.19831L14.7221 4.29664C14.6973 4.25379 14.6574 4.22314 14.6096 4.21033C14.5936 4.20606 14.5774 4.20394 14.5614 4.20394Z" fill="#3A3140"/>
  <path d="M26.8377 31.0265L26.1816 31.1462C26.054 31.1694 25.9316 31.0848 25.9083 30.9572L21.5852 7.25577L21.6113 4.23096L22.7036 7.05177L27.0267 30.7532C27.05 30.8808 26.9654 31.0032 26.8377 31.0265Z" fill="#FFB919"/>
  <path d="M26.1392 31.1881C26.0842 31.1881 26.0306 31.1715 25.9845 31.1395C25.9245 31.0981 25.8842 31.0357 25.8711 30.964L21.548 7.26258C21.5476 7.26022 21.5474 7.25782 21.5474 7.25543L21.5735 4.23061C21.5737 4.21235 21.5868 4.19677 21.6047 4.19349C21.6227 4.19021 21.6405 4.20016 21.6471 4.2172L22.7394 7.03801C22.7402 7.04025 22.7409 7.04257 22.7413 7.04493L27.0644 30.7463C27.0775 30.8181 27.0619 30.8906 27.0204 30.9506C26.9789 31.0106 26.9166 31.0508 26.8448 31.0639L26.1887 31.1836C26.1722 31.1866 26.1556 31.1881 26.1392 31.1881ZM21.6236 7.25248L25.946 30.9503C25.9555 31.002 25.9845 31.047 26.0278 31.0769C26.071 31.1069 26.1233 31.1181 26.1751 31.1087L26.8312 30.989C26.8829 30.9796 26.9279 30.9506 26.9578 30.9073C26.9877 30.864 26.999 30.8117 26.9895 30.76L22.6671 7.06215L21.6479 4.43021L21.6236 7.25248Z" fill="#3A3140"/>
  <path d="M25.6398 29.4833L25.9086 30.9571C25.9319 31.0848 26.0542 31.1694 26.1819 31.1461L26.838 31.0264C26.9657 31.0031 27.0503 30.8808 27.027 30.7531L26.7582 29.2793L25.6398 29.4833Z" fill="#E84E33"/>
  <path d="M26.1395 31.188C26.0102 31.188 25.895 31.0955 25.871 30.9639L25.6022 29.4901C25.5984 29.4694 25.6121 29.4496 25.6328 29.4458L26.7512 29.2418C26.7611 29.24 26.7714 29.2422 26.7797 29.248C26.788 29.2537 26.7937 29.2625 26.7955 29.2724L27.0643 30.7463C27.0774 30.818 27.0617 30.8906 27.0203 30.9505C26.9788 31.0105 26.9164 31.0508 26.8447 31.0639L26.1886 31.1835C26.1721 31.1865 26.1557 31.188 26.1395 31.188ZM25.6839 29.5139L25.9459 30.9503C25.9654 31.0571 26.068 31.1281 26.175 31.1086L26.831 30.989C26.8828 30.9795 26.9277 30.9505 26.9577 30.9072C26.9876 30.864 26.9988 30.8117 26.9894 30.7599L26.7274 29.3236L25.6839 29.5139Z" fill="#3A3140"/>
  <path d="M26.8615 29.6458L25.6721 29.8627C25.5986 29.8761 25.5281 29.8274 25.5147 29.7538L25.4273 29.2745C25.4139 29.201 25.4626 29.1305 25.5361 29.1171L26.7255 28.9002C26.7991 28.8868 26.8695 28.9355 26.8829 29.009L26.9704 29.4883C26.9838 29.5619 26.935 29.6323 26.8615 29.6458Z" fill="#3A3140"/>
  <path d="M25.6475 29.903C25.6126 29.903 25.5785 29.8924 25.5492 29.8722C25.5111 29.8458 25.4856 29.8062 25.4772 29.7606L25.3898 29.2814C25.3815 29.2358 25.3914 29.1897 25.4178 29.1516C25.4441 29.1135 25.4837 29.088 25.5293 29.0796L26.7187 28.8627C26.8127 28.8455 26.9032 28.9081 26.9204 29.0022L27.0078 29.4815C27.0161 29.527 27.0062 29.5731 26.9799 29.6112C26.9535 29.6493 26.9139 29.6749 26.8683 29.6832L25.6789 29.9001C25.6684 29.902 25.6579 29.903 25.6475 29.903ZM26.75 28.936C26.7441 28.936 26.7382 28.9365 26.7323 28.9376L25.543 29.1545C25.4902 29.1642 25.4551 29.2149 25.4647 29.2677L25.5521 29.747C25.5568 29.7726 25.5711 29.7948 25.5925 29.8096C25.6139 29.8243 25.6397 29.8299 25.6653 29.8252L26.8547 29.6083H26.8547C26.9075 29.5987 26.9425 29.5479 26.9329 29.4951L26.8455 29.0158C26.8408 28.9903 26.8265 28.9681 26.8051 28.9533C26.7887 28.9419 26.7696 28.936 26.75 28.936Z" fill="#3A3140"/>
  <path d="M21.5851 7.25577L22.1556 7.39207L22.7035 7.05177L21.6112 4.23096L21.5851 7.25577Z" fill="white"/>
  <path d="M22.1557 7.43011C22.1528 7.43011 22.1498 7.42977 22.1469 7.42907L21.5763 7.29277C21.5591 7.28864 21.547 7.27315 21.5471 7.25542L21.5732 4.23061C21.5734 4.21235 21.5865 4.19677 21.6044 4.19349C21.6224 4.19021 21.6402 4.20017 21.6468 4.2172L22.7391 7.03801C22.7457 7.05508 22.7392 7.07443 22.7237 7.08409L22.1758 7.42439C22.1697 7.42815 22.1628 7.43011 22.1557 7.43011ZM21.6235 7.22576L22.1491 7.35133L22.6567 7.03606L21.6476 4.4302L21.6235 7.22576Z" fill="#3A3140"/>
  <path d="M21.6112 4.23096L21.5991 5.6318C21.5991 5.6318 21.7347 5.66211 21.8678 5.63782C22.0009 5.61353 22.1171 5.53732 22.1171 5.53732L21.6112 4.23096Z" fill="#3A3140"/>
  <path d="M21.756 5.68533C21.6657 5.68533 21.595 5.66985 21.5909 5.66893C21.5734 5.66502 21.561 5.6494 21.5612 5.63145L21.5732 4.23061C21.5734 4.21235 21.5865 4.19677 21.6045 4.19349C21.6225 4.19021 21.6402 4.20017 21.6468 4.2172L22.1527 5.52356C22.1591 5.5403 22.1531 5.55928 22.138 5.56913C22.133 5.57242 22.0139 5.64986 21.8747 5.67524C21.834 5.68268 21.7933 5.68533 21.756 5.68533ZM21.6376 5.59996C21.683 5.60689 21.7734 5.61636 21.8611 5.60036C21.9488 5.58436 22.03 5.54362 22.0701 5.52108L21.6476 4.43022L21.6376 5.59996Z" fill="#3A3140"/>
</svg>