<svg xmlns="http://www.w3.org/2000/svg" width="40" height="40" viewBox="0 0 40 40" fill="none">
  <path d="M28.5331 4.91602L27.3451 5.49442L23.6243 2.18322L24.1443 1.93042L28.5331 4.91602Z" fill="#F8F9FE"/>
  <path d="M27.8116 14.3168L27.8396 13.9456H27.8316C26.6324 13.9456 25.7596 13.4936 24.8668 12.8336L24.8404 12.8256C25.3316 13.2248 24.8636 12.912 24.646 12.7624C24.31 12.6496 23.974 12.5384 23.6348 12.4368C23.3684 12.3568 23.1148 12.264 22.854 12.1784L22.8516 12.2128C22.2996 12.1168 21.7396 12.0448 21.1796 12.0048V11.576C21.0484 11.5248 20.9172 11.4744 20.7868 11.4216L20.774 11.4256C19.6774 11.7862 18.5483 12.0393 17.4028 12.1816C16.7788 12.2824 16.1652 12.408 15.5788 12.5896L15.5372 12.3128C15.4852 12.3128 15.4356 12.3208 15.3828 12.32C14.2916 12.3144 13.5268 12.4544 12.7356 12.704L12.9076 13.8128C11.2996 14.8608 10.4996 16.1808 10.5156 17.5008L10.4516 33.6688C10.4436 35.0848 11.3796 36.5088 13.2516 37.5888C16.9876 39.7408 23.0116 39.7328 26.7156 37.5808C28.5556 36.5168 29.4836 35.1168 29.4836 33.7088V33.5488L29.5476 17.4928C29.5476 17.5088 29.5396 17.5248 29.5396 17.5408C29.5636 16.4128 28.9876 15.2848 27.8116 14.3168Z" fill="#3EB489"/>
  <path d="M26.7413 13.5736C30.4701 15.7256 30.4853 19.2152 26.7805 21.3672C23.0765 23.52 17.0485 23.5264 13.3197 21.3736C9.59089 19.2208 9.57569 15.7256 13.2805 13.5736C16.9845 11.4208 23.0133 11.4208 26.7413 13.5736Z" fill="#7DD98E"/>
  <path d="M28.3512 18.5761C28.1112 19.1841 27.6712 19.7681 27.0312 20.3041C26.7512 20.5281 26.4392 20.7521 26.0792 20.9601C25.4952 21.2961 24.8472 21.5761 24.1592 21.7921C21.9672 22.4961 19.3592 22.6001 17.0472 22.0881C15.9432 21.8561 14.9112 21.4801 14.0232 20.9681C14.0152 20.9601 14.0072 20.9601 13.9992 20.9521C12.8152 20.2721 12.0552 19.4241 11.7112 18.5441C11.1992 17.2161 11.6392 15.7921 13.0312 14.6401C13.3112 14.4081 13.6312 14.1841 13.9832 13.9761C14.5032 13.6721 15.0712 13.4161 15.6792 13.2161H15.6872C18.7192 12.1761 22.6232 12.3201 25.4152 13.6401C25.6312 13.7521 25.8392 13.8561 26.0392 13.9761C26.7832 14.4081 27.3672 14.8961 27.7752 15.4161C28.5672 16.4161 28.7512 17.5201 28.3512 18.5761Z" fill="#3EB489"/>
  <path d="M28.3509 18.5759C28.1589 19.0639 27.8309 19.5439 27.3749 19.9839C27.2149 20.1519 27.0389 20.3039 26.8389 20.4479C26.6069 20.6319 26.3589 20.7999 26.0789 20.9599C25.4069 21.3519 24.6549 21.6639 23.8469 21.8959C23.7269 21.9279 23.6069 21.9599 23.4869 21.9839C23.1829 22.0639 22.8789 22.1359 22.5669 22.1839C22.5509 22.1919 22.5349 22.1919 22.5269 22.1919C22.3749 22.2239 22.2309 22.2479 22.0789 22.2639C21.7749 22.3039 21.4709 22.3359 21.1669 22.3599C20.0789 22.4479 18.9749 22.4159 17.9109 22.2479C16.4869 22.0399 15.1349 21.6079 14.0229 20.9679C12.8229 20.2799 12.0549 19.4319 11.7109 18.5439C12.0549 17.6639 12.8149 16.8319 13.9829 16.1519C15.1109 15.4959 16.4789 15.0639 17.9269 14.8559C18.9829 14.7039 20.0949 14.6639 21.1749 14.7519C21.6709 14.7919 22.1589 14.8559 22.6389 14.9519C23.0469 15.0239 23.4469 15.1119 23.8389 15.2319C24.1829 15.3279 24.5189 15.4479 24.8389 15.5759H24.8469C25.2709 15.7439 25.6629 15.9359 26.0389 16.1519C26.4469 16.3839 26.8069 16.6399 27.1109 16.9039C27.2869 17.0479 27.4389 17.1999 27.5829 17.3599C27.9349 17.7519 28.1909 18.1599 28.3509 18.5759Z" fill="#3EB489"/>
  <path d="M14.3183 4.30158L11.5039 4.73678L12.0407 2.18398L12.3295 0.800781L13.0279 2.03038L14.3183 4.30158Z" fill="#FED57A"/>
  <path d="M17.047 22.088C15.943 21.8561 14.911 21.48 14.023 20.968C14.015 20.96 14.007 20.96 13.999 20.952L13.031 14.64L11.519 4.81605C11.511 4.79205 11.511 4.76005 11.511 4.73605C11.511 4.68805 11.519 4.64805 11.535 4.60005C11.575 4.45605 11.679 4.30405 11.839 4.17605C12.343 3.77605 13.223 3.64005 13.823 3.87205C14.047 3.95205 14.199 4.08005 14.279 4.22405V4.23205C14.287 4.25605 14.303 4.28005 14.303 4.30405C14.319 4.32805 14.319 4.36005 14.327 4.38405L15.679 13.216H15.687L17.047 22.088ZM13.0278 2.03125C12.7246 2.14485 12.371 2.20565 12.0406 2.18485L12.3286 0.800049L13.0278 2.02965V2.03125Z" fill="#1D2943"/>
  <path d="M21.1882 8.29277H21.1642C21.1322 8.08477 20.9802 7.87677 20.7002 7.71677C20.0682 7.34877 19.0362 7.34877 18.4042 7.71677C18.1322 7.87677 17.9722 8.08477 17.9482 8.29277H17.9242L18.9802 5.50077L19.5482 3.98877L20.1242 5.50077L21.1882 8.29277Z" fill="#FFD06C"/>
  <path d="M21.1829 8.39193L21.1749 14.7519L21.1669 22.3599C20.0789 22.4479 18.9749 22.4159 17.9109 22.2479L17.9269 14.8559L17.9349 8.38393C17.9349 8.35193 17.9349 8.31993 17.9509 8.29593C17.9749 8.08793 18.1349 7.87993 18.4069 7.71993C19.0389 7.35193 20.0709 7.35193 20.7029 7.71993C20.9829 7.87993 21.1349 8.08793 21.1669 8.29593C21.1829 8.32793 21.1829 8.35993 21.1829 8.39193ZM20.1261 5.50073C19.7488 5.57951 19.3594 5.57951 18.9821 5.50073L19.5501 3.98633L20.1261 5.50073Z" fill="#72D561"/>
  <path d="M29.5469 17.4927L29.4829 33.5487V33.7088C29.4829 35.1168 28.5549 36.5168 26.7149 37.5808C23.0109 39.7328 16.9869 39.7407 13.2509 37.5888C11.3789 36.5087 10.4429 35.0847 10.4509 33.6687L10.5149 17.4688C10.5149 18.8608 11.4269 20.2607 13.2429 21.3247C13.2669 21.3407 13.2989 21.3567 13.3229 21.3727C17.0509 23.5247 23.0749 23.5167 26.7789 21.3647C28.6189 20.3007 29.5469 18.9007 29.5469 17.4927Z" fill="#3EB489"/>
  <path d="M29.547 17.4927L29.483 33.5487C29.483 33.5567 29.475 33.5567 29.475 33.5567C25.771 35.7087 19.747 35.7087 16.011 33.5567C14.139 32.4767 13.203 31.0527 13.211 29.6367L13.243 21.3247C13.267 21.3407 13.299 21.3567 13.323 21.3727C17.051 23.5247 23.075 23.5167 26.779 21.3647C28.619 20.3007 29.547 18.9007 29.547 17.4927Z" fill="#3EB489"/>
  <path d="M28.5351 4.91187L27.5831 17.3599L27.3751 19.9839C27.2151 20.1519 27.0391 20.3039 26.8391 20.4479L27.1111 16.9039L26.8663 5.73347L28.5351 4.91187Z" fill="#E9E7FC"/>
  <path d="M28.0141 5.16808L27.1101 16.9041L26.8381 20.4481C26.6061 20.6321 26.3581 20.8001 26.0781 20.9601C25.4061 21.3521 24.6541 21.6641 23.8461 21.8961C23.7261 21.9281 23.6061 21.9601 23.4861 21.9841C23.1821 22.0641 22.8781 22.1361 22.5661 22.1841C22.5501 22.1921 22.5341 22.1921 22.5261 22.1921C22.3741 22.2241 22.2301 22.2481 22.0781 22.2641L22.6381 14.9521L23.6221 2.18408L28.0141 5.16808Z" fill="#F3F1FC"/>
  <path d="M22.5666 22.1839C22.5506 22.1919 22.5346 22.1919 22.5266 22.1919V22.1599L22.5666 22.1839ZM23.8466 21.8959C23.7266 21.9279 23.6066 21.9599 23.4866 21.9839L22.5906 21.3759L22.6146 21.0559L23.8466 21.8959ZM24.269 19.8495L24.2442 20.1743L22.7586 19.1639L22.7834 18.8391L24.269 19.8495ZM24.1842 20.9591L24.1594 21.2799L22.6738 20.2695L22.6986 19.9487L24.1842 20.9591ZM25.2114 19.3239L25.1866 19.6487L22.8442 18.0551L22.869 17.7295L25.2114 19.3239ZM24.4394 17.6351L24.4146 17.9559L22.929 16.9455L22.9538 16.6247L24.4394 17.6351ZM25.205 7.65911L25.1802 7.98071L23.6954 6.97031L23.7194 6.64871L25.205 7.65911ZM25.977 9.35191L25.9522 9.67271L23.6098 8.07911L23.6346 7.75831L25.977 9.35191ZM25.0346 9.87351L25.0098 10.1991L23.525 9.18871L23.5498 8.86311L25.0346 9.87351ZM24.9498 10.9831L24.925 11.3079L23.4394 10.2975L23.4642 9.97271L24.9498 10.9831ZM25.7218 12.6759L25.697 12.9967L23.3546 11.4031L23.3794 11.0815L25.7218 12.6759ZM24.7794 13.2015L24.7546 13.5231L23.2698 12.5127L23.2938 12.1911L24.7794 13.2015ZM24.6946 14.3071L24.6698 14.6319L23.1842 13.6215L23.209 13.2967L24.6946 14.3071ZM25.4666 15.9999L25.4418 16.3247L23.0994 14.7311L23.1242 14.4055L25.4666 15.9999ZM24.5242 16.5255L24.4994 16.8471L23.0146 15.8367L23.0386 15.5151L24.5242 16.5255ZM25.2898 6.54951L25.265 6.87511L23.7802 5.86471L23.805 5.53911L25.2898 6.54951ZM26.233 6.02391L26.2074 6.34871L23.865 4.75511L23.8898 4.43031L26.233 6.02391ZM25.4602 4.33511L25.4354 4.65671L23.9498 3.64631L23.9746 3.32471L25.4602 4.33511Z" fill="#B0B8CF"/>
  <path d="M17.0475 26.9528C16.3723 26.9528 15.7739 27.2168 15.3379 27.6568C15.1124 27.8802 14.9339 28.1465 14.813 28.44C14.6921 28.7335 14.6312 29.0482 14.6339 29.3656C14.6333 28.7261 14.379 28.1128 13.9268 27.6605C13.4746 27.2082 12.8615 26.9537 12.2219 26.9528C12.8819 26.9528 13.4947 26.6752 13.9355 26.2536C14.3563 25.8136 14.6347 25.2008 14.6347 24.54C14.6347 25.2008 14.8979 25.8136 15.3387 26.2536C15.7956 26.7003 16.4086 26.9511 17.0475 26.9528Z" fill="white"/>
</svg>