<svg xmlns="http://www.w3.org/2000/svg" width="40" height="40" viewBox="0 0 40 40" fill="none">
  <path d="M32.7321 35.7617L19.2649 39.3703C18.5891 39.5516 17.8938 39.15 17.7125 38.4742L12.6211 19.4735C12.5211 19.1016 12.5961 18.7047 12.8243 18.3945L17.0094 12.7063C17.1797 12.4742 17.4243 12.3078 17.7024 12.2328L20.5165 11.4789C20.7946 11.4047 21.0899 11.4266 21.3532 11.5422L27.8219 14.3766C28.1743 14.5313 28.4375 14.8375 28.5375 15.2094L33.629 34.2102C33.8102 34.886 33.4086 35.5813 32.7329 35.7625L32.7321 35.7617Z" fill="#83D792"/>
  <path d="M17.057 36.0256L32.9729 31.761L33.629 34.2098C33.81 34.8851 33.4084 35.5808 32.733 35.7617L19.2651 39.3704C18.5897 39.5514 17.8941 39.1498 17.7132 38.4744L17.057 36.0256Z" fill="white"/>
  <path d="M25.0781 39.4141H7.89062C7.02734 39.4141 6.32812 38.7148 6.32812 37.8516V13.6023C6.32812 13.1273 6.54375 12.6789 6.91484 12.382L13.7133 6.94375C13.9906 6.72187 14.3344 6.60156 14.6891 6.60156H18.2805C18.6352 6.60156 18.9797 6.72266 19.2562 6.94375L26.0547 12.382C26.425 12.6789 26.6414 13.1273 26.6414 13.6023V37.8516C26.6414 38.7148 25.9422 39.4141 25.0789 39.4141H25.0781Z" fill="#3EB489"/>
  <path d="M6.32812 34.7266H26.6406V37.8516C26.6406 38.7141 25.9406 39.4141 25.0781 39.4141H7.89062C7.02812 39.4141 6.32812 38.7141 6.32812 37.8516V34.7266Z" fill="#83D792"/>
  <path d="M15.3789 25.1562H17.5906C18.3813 25.1562 19.0242 25.8281 19.0242 26.6539C19.0242 27.4797 18.3813 28.1516 17.5906 28.1516H13.9852C13.6617 28.1516 13.3992 28.4141 13.3992 28.7375C13.3992 29.0609 13.6617 29.3234 13.9852 29.3234H14.5969V30.8211C14.5969 31.1445 14.8594 31.407 15.1828 31.407C15.5062 31.407 15.7687 31.1445 15.7687 30.8211V29.3234H17.2008V30.8211C17.2008 31.1445 17.4633 31.407 17.7867 31.407C18.1102 31.407 18.3727 31.1445 18.3727 30.8211V29.2008C19.4281 28.8594 20.1953 27.8477 20.1953 26.6547C20.1953 25.1828 19.0266 23.9852 17.5898 23.9852H15.3781C14.5875 23.9852 13.9445 23.3133 13.9445 22.4875C13.9445 21.6617 14.5875 20.9898 15.3781 20.9898H18.9836C19.307 20.9898 19.5695 20.7273 19.5695 20.4039C19.5695 20.0805 19.307 19.818 18.9836 19.818H18.3719V18.3203C18.3719 17.9969 18.1094 17.7344 17.7859 17.7344C17.4625 17.7344 17.2 17.9969 17.2 18.3203V19.818H15.768V18.3203C15.768 17.9969 15.5055 17.7344 15.182 17.7344C14.8586 17.7344 14.5961 17.9969 14.5961 18.3203V19.9406C13.5406 20.282 12.7734 21.2937 12.7734 22.4867C12.7734 23.9586 13.9422 25.1562 15.3789 25.1562ZM22.7344 25.1562H23.5156C23.8391 25.1562 24.1016 24.8938 24.1016 24.5703C24.1016 24.2469 23.8391 23.9844 23.5156 23.9844H22.7344C22.4109 23.9844 22.1484 24.2469 22.1484 24.5703C22.1484 24.8938 22.4109 25.1562 22.7344 25.1562ZM9.45312 25.1562H10.2344C10.5578 25.1562 10.8203 24.8938 10.8203 24.5703C10.8203 24.2469 10.5578 23.9844 10.2344 23.9844H9.45312C9.12969 23.9844 8.86719 24.2469 8.86719 24.5703C8.86719 24.8938 9.12969 25.1562 9.45312 25.1562Z" fill="white"/>
  <path d="M34.1945 34.0578L29.1031 15.0578C28.9562 14.5109 28.575 14.0672 28.057 13.8398L27.2227 13.4742C27.1867 12.8672 26.8992 12.3078 26.4203 11.925L19.6219 6.48672C19.3352 6.25703 18.9922 6.10625 18.6328 6.04531V2.14844C18.6328 0.964063 17.6687 0 16.4844 0C15.3 0 14.3359 0.964063 14.3359 2.14844V6.04531C13.9758 6.10547 13.6336 6.25703 13.3469 6.48672L6.54844 11.925C6.03594 12.3352 5.74219 12.9469 5.74219 13.6023V37.8516C5.74219 39.0359 6.70625 40 7.89062 40H25.0781C26.2625 40 27.2266 39.0359 27.2266 37.8516V37.8438L32.8836 36.3281C33.8703 36.0633 34.4586 35.0453 34.1945 34.0578ZM27.9711 15.3609L32.2547 31.3469L27.2266 32.6945V14.7555L27.5867 14.9133C27.7773 14.9969 27.918 15.1602 27.9711 15.3609ZM16.4844 1.17188C17.0227 1.17188 17.4609 1.61016 17.4609 2.14844V6.01562H15.5078V2.14844C15.5078 1.61016 15.9461 1.17188 16.4844 1.17188ZM7.28047 12.8398L14.0789 7.40156C14.157 7.33906 14.2437 7.29063 14.3359 7.25469V13.0859C14.3359 14.2703 15.3 15.2344 16.4844 15.2344H18.0469C18.3703 15.2344 18.6328 14.9719 18.6328 14.6484C18.6328 14.325 18.3703 14.0625 18.0469 14.0625H16.4844C15.9461 14.0625 15.5078 13.6242 15.5078 13.0859V7.1875H18.2797C18.5008 7.1875 18.7172 7.26328 18.8898 7.40156L25.6883 12.8398C25.9211 13.0266 26.0547 13.3039 26.0547 13.6023V34.1406H6.91406V13.6023C6.91406 13.3039 7.04766 13.0258 7.28047 12.8398ZM25.0781 38.8281H7.89062C7.35234 38.8281 6.91406 38.3898 6.91406 37.8516V35.3125H26.0547V37.8516C26.0547 38.3898 25.6164 38.8281 25.0781 38.8281ZM32.5805 35.1961L27.2266 36.6305V33.907L32.5578 32.4781L33.0625 34.3609C33.1594 34.7242 32.9438 35.0984 32.5805 35.1961Z" fill="black"/>
</svg>