<svg xmlns="http://www.w3.org/2000/svg" width="41" height="40" viewBox="0 0 41 40" fill="none">
  <g clip-path="url(#clip0_4052_5759)">
    <path d="M39.116 22.6165C34.9137 16.182 35.3604 9.58648 33.3349 6.48537C31.3093 3.38426 25.2726 -1.96241 11.0093 7.35426C-3.25404 16.6709 0.373739 26.7987 2.60263 30.2087C13.0337 46.1776 46.5593 34.012 39.116 22.6165Z" fill="#83D792"/>
    <path d="M33.6667 10.1002C32.7478 10.1002 32 9.3524 32 8.43351C32 7.51462 32.7478 6.76685 33.6667 6.76685C34.5856 6.76685 35.3334 7.51462 35.3334 8.43351C35.3334 9.3524 34.5856 10.1002 33.6667 10.1002ZM33.6667 7.87796C33.5193 7.87796 33.378 7.93649 33.2738 8.04067C33.1697 8.14486 33.1111 8.28617 33.1111 8.43351C33.1111 8.58085 33.1697 8.72216 33.2738 8.82635C33.378 8.93054 33.5193 8.98907 33.6667 8.98907C33.814 8.98907 33.9553 8.93054 34.0595 8.82635C34.1637 8.72216 34.2222 8.58085 34.2222 8.43351C34.2222 8.28617 34.1637 8.14486 34.0595 8.04067C33.9553 7.93649 33.814 7.87796 33.6667 7.87796ZM6.44446 8.43351H7.55557V10.6557H6.44446V8.43351ZM6.44446 14.8224H7.55557V17.0446H6.44446V14.8224ZM2.55557 12.0446H4.77779V13.1557H2.55557V12.0446ZM8.94446 12.0446H11.1667V13.1557H8.94446V12.0446Z" fill="#FAB991"/>
    <path d="M23.2087 23.0899L19.321 25.2388C19.1901 25.3113 19.0415 25.3454 18.8921 25.3374C18.7427 25.3293 18.5986 25.2794 18.4762 25.1932C18.3539 25.1071 18.2583 24.9882 18.2004 24.8503C18.1425 24.7123 18.1246 24.5609 18.1487 24.4132L18.9099 19.7454C18.93 19.6222 18.9209 19.4959 18.8833 19.3768C18.8456 19.2577 18.7805 19.1492 18.6932 19.0599L15.4376 15.7232C15.3352 15.6184 15.2637 15.4873 15.2309 15.3445C15.1981 15.2016 15.2054 15.0525 15.2519 14.9135C15.2984 14.7745 15.3824 14.6511 15.4946 14.5567C15.6067 14.4624 15.7427 14.4008 15.8876 14.3788L20.3176 13.7021C20.447 13.6823 20.5694 13.631 20.6743 13.5527C20.7791 13.4744 20.863 13.3716 20.9187 13.2532L22.871 9.09321C22.9355 8.95633 23.0376 8.84062 23.1653 8.75957C23.2931 8.67853 23.4413 8.6355 23.5926 8.6355C23.744 8.6355 23.8921 8.67853 24.0199 8.75957C24.1477 8.84062 24.2498 8.95633 24.3143 9.09321L26.2665 13.2532C26.3222 13.3716 26.4061 13.4745 26.5109 13.5528C26.6158 13.6311 26.7383 13.6824 26.8676 13.7021L31.2976 14.3788C31.4425 14.4008 31.5786 14.4624 31.6907 14.5567C31.8029 14.6511 31.8868 14.7745 31.9334 14.9135C31.9799 15.0525 31.9872 15.2016 31.9544 15.3445C31.9216 15.4873 31.8501 15.6184 31.7476 15.7232L28.4921 19.0599C28.405 19.1493 28.34 19.2579 28.3024 19.3769C28.2648 19.496 28.2555 19.6222 28.2754 19.7454L29.0365 24.4132C29.0607 24.5609 29.0428 24.7123 28.9849 24.8503C28.9269 24.9882 28.8314 25.1071 28.709 25.1932C28.5867 25.2794 28.4426 25.3293 28.2932 25.3374C28.1438 25.3454 27.9952 25.3113 27.8643 25.2388L23.9765 23.0899C23.859 23.0248 23.7269 22.9906 23.5926 22.9906C23.4583 22.9906 23.3262 23.0248 23.2087 23.0899Z" fill="#3EB489"/>
    <path d="M22.8187 12.591C22.9481 12.5714 23.0707 12.5201 23.1755 12.4418C23.2804 12.3635 23.3643 12.2606 23.4198 12.1421L24.5832 9.66321L24.3154 9.09321C24.2509 8.95633 24.1488 8.84062 24.021 8.75957C23.8932 8.67853 23.7451 8.6355 23.5937 8.6355C23.4424 8.6355 23.2942 8.67853 23.1664 8.75957C23.0387 8.84062 22.9366 8.95633 22.8721 9.09321L21.1076 12.8532L22.8187 12.591ZM20.6487 23.3021L21.4098 18.6343C21.43 18.5111 21.4209 18.3848 21.3832 18.2657C21.3456 18.1466 21.2805 18.0381 21.1932 17.9488L17.9376 14.6121C17.8034 14.474 17.7251 14.2912 17.7176 14.0988L15.8887 14.3788C15.7438 14.4008 15.6078 14.4624 15.4957 14.5567C15.3835 14.6511 15.2995 14.7745 15.253 14.9135C15.2065 15.0525 15.1992 15.2016 15.232 15.3445C15.2648 15.4873 15.3363 15.6184 15.4387 15.7232L18.6943 19.0599C18.7814 19.1493 18.8464 19.2579 18.884 19.3769C18.9216 19.496 18.9308 19.6222 18.911 19.7454L18.1498 24.4132C18.1257 24.5609 18.1436 24.7123 18.2015 24.8503C18.2594 24.9882 18.355 25.1071 18.4773 25.1932C18.5997 25.2794 18.7438 25.3293 18.8932 25.3374C19.0425 25.3454 19.1912 25.3113 19.3221 25.2388L21.2165 24.1921C21.0286 24.1401 20.8667 24.0204 20.7618 23.8561C20.657 23.6917 20.6167 23.4944 20.6487 23.3021ZM28.8576 23.2932L26.4798 21.9788C26.3617 21.9138 26.2291 21.8797 26.0943 21.8797C25.9595 21.8797 25.8269 21.9138 25.7087 21.9788L23.7887 23.0399C23.8532 23.0565 23.921 23.0565 23.981 23.0899L27.8687 25.2388C27.9996 25.3113 28.1483 25.3454 28.2977 25.3374C28.447 25.3293 28.5911 25.2794 28.7135 25.1932C28.8358 25.1071 28.9314 24.9882 28.9893 24.8503C29.0472 24.7123 29.0651 24.5609 29.041 24.4132L28.8576 23.2932Z" fill="#3EB489"/>
    <path d="M17.0722 29.3987L11.3622 32.5554L12.4533 25.8699L7.83334 21.1354L14.2178 20.1599L17.0722 14.0776L19.9278 20.1599L26.3111 21.1354L21.6922 25.8699L22.7822 32.5554L17.0722 29.3987Z" fill="#83D792"/>
    <path d="M13.9111 31.1465L14.9533 24.7587L10.9522 20.6587L7.83334 21.1354L12.4533 25.8699L11.3622 32.5554L13.9111 31.1465ZM16.7178 19.0487L18.0622 16.1843L17.0722 14.0776L14.5867 19.3743L16.7178 19.0487ZM19.5722 28.2876L17.3178 29.5343L22.7822 32.5554L22.3356 29.8154L19.5722 28.2876Z" fill="#3EB489"/>
    <path d="M29.3007 26.8677C29.16 26.8677 29.0217 26.8322 28.8985 26.7643L25.8218 25.0688L26.6274 23.6099L28.2029 24.4788L27.3907 19.4843C27.3697 19.3557 27.3792 19.224 27.4184 19.0997C27.4576 18.9755 27.5253 18.8621 27.6162 18.7688L31.1029 15.1921L26.3274 14.4688C26.1919 14.4483 26.0636 14.3947 25.9539 14.3127C25.8442 14.2307 25.7564 14.1229 25.6985 13.9988L23.5929 9.51767L21.4885 13.9988C21.4302 14.1229 21.3423 14.2307 21.2324 14.3127C21.1225 14.3947 20.994 14.4483 20.8585 14.4688L19.4896 14.6754L19.2407 13.0277L20.1696 12.8877L22.8385 7.20323C23.1129 6.61878 24.0718 6.61878 24.3462 7.20323L27.0162 12.8877L32.9562 13.7888C33.1078 13.8117 33.2501 13.876 33.3675 13.9745C33.4848 14.0731 33.5728 14.2021 33.6216 14.3474C33.6704 14.4926 33.6782 14.6486 33.6441 14.798C33.6101 14.9474 33.5354 15.0846 33.4285 15.1943L29.1018 19.6332L30.1218 25.9032C30.1407 26.0221 30.1337 26.1437 30.1012 26.2595C30.0686 26.3754 30.0114 26.4829 29.9334 26.5746C29.8553 26.6662 29.7584 26.7399 29.6492 26.7905C29.5399 26.8411 29.4211 26.8674 29.3007 26.8677Z" fill="white"/>
    <path d="M22.7824 33.3889C22.6412 33.3891 22.5023 33.3531 22.379 33.2844L17.0724 30.3511L11.7657 33.2844C11.6288 33.3596 11.4735 33.3948 11.3176 33.3861C11.1616 33.3774 11.0112 33.3251 10.8835 33.2352C10.7558 33.1452 10.656 33.0212 10.5952 32.8773C10.5345 32.7334 10.5154 32.5753 10.5401 32.4211L11.5624 26.1511L7.2368 21.7178C7.12987 21.6081 7.05521 21.4712 7.02103 21.3219C6.98684 21.1726 6.99445 21.0168 7.04301 20.8716C7.09158 20.7264 7.17922 20.5973 7.29632 20.4986C7.41341 20.4 7.55544 20.3355 7.7068 20.3122L13.6512 19.4033L16.3179 13.7233C16.3851 13.58 16.4918 13.4588 16.6254 13.3739C16.759 13.289 16.9141 13.2439 17.0724 13.2439C17.2307 13.2439 17.3857 13.289 17.5193 13.3739C17.6529 13.4588 17.7596 13.58 17.8268 13.7233L20.4924 19.4033L26.4368 20.3122C26.5886 20.3347 26.7312 20.3988 26.8488 20.4974C26.9664 20.596 27.0544 20.7252 27.1031 20.8708C27.1518 21.0163 27.1592 21.1725 27.1245 21.322C27.0899 21.4715 27.0145 21.6085 26.9068 21.7178L22.5812 26.1511L23.6035 32.4211C23.6227 32.5402 23.616 32.662 23.5836 32.7783C23.5512 32.8945 23.4941 33.0023 23.416 33.0943C23.338 33.1863 23.2409 33.2602 23.1315 33.3111C23.0221 33.362 22.903 33.3885 22.7824 33.3889ZM9.56235 21.7144L13.049 25.2878C13.1403 25.3811 13.2084 25.4946 13.2477 25.6191C13.2871 25.7436 13.2967 25.8756 13.2757 26.0044L12.4612 30.9955L16.6701 28.67C16.7936 28.6017 16.9324 28.5659 17.0735 28.5659C17.2146 28.5659 17.3533 28.6017 17.4768 28.67L21.6846 30.9955L20.8701 26.0044C20.8491 25.8756 20.8587 25.7436 20.8981 25.6191C20.9374 25.4946 21.0055 25.3811 21.0968 25.2878L24.5835 21.7144L19.8024 20.9833C19.6673 20.9626 19.5394 20.909 19.4299 20.8273C19.3204 20.7455 19.2328 20.6381 19.1746 20.5144L17.0735 16.0389L14.9724 20.5144C14.9144 20.6382 14.8268 20.7458 14.7173 20.8276C14.6078 20.9094 14.4797 20.9629 14.3446 20.9833L9.56235 21.7144Z" fill="white"/>
  </g>
  <defs>
    <clipPath id="clip0_4052_5759">
      <rect width="40" height="40" fill="white" transform="translate(0.333344)"/>
    </clipPath>
  </defs>
</svg>