<svg xmlns="http://www.w3.org/2000/svg" width="33" height="33" viewBox="0 0 33 33" fill="none">
  <path d="M20.5963 6.39781L16.9602 5.59863L15.1006 14.0595L18.7367 14.8586L20.5963 6.39781Z" fill="#1B136A"/>
  <path d="M20.5963 6.39792L16.9602 5.59874L18.0244 2.52813C18.1044 2.29736 18.3445 2.16297 18.583 2.2154L20.5962 2.65789C20.8037 2.7035 20.9442 2.89716 20.9232 3.10855L20.5963 6.39792Z" fill="#4A53E2"/>
  <path d="M19.7994 6.7633L17.5306 6.26465L16.0375 13.0579L18.3063 13.5565L19.7994 6.7633Z" fill="#E5E5FF"/>
  <path d="M10.0747 1.03455L5.28296 2.03027L9.24325 21.0885L14.035 20.0928L10.0747 1.03455Z" fill="#FF6A00"/>
  <path d="M9.35103 1.62746L5.86169 2.35254L8.74557 16.2307L12.2349 15.5056L9.35103 1.62746Z" fill="#3EB489"/>
  <path d="M9.98445 2.54989C9.6791 2.61759 9.37578 2.69758 9.07353 2.77793C9.02919 2.78971 9.0479 2.85674 9.09243 2.84649C9.39722 2.77627 9.70282 2.70527 10.0044 2.62243C10.0513 2.60955 10.0316 2.53944 9.98445 2.54989ZM10.476 4.25567C10.1706 4.32337 9.86729 4.40337 9.56504 4.48371C9.52071 4.4955 9.53942 4.56253 9.58395 4.55227C9.88874 4.48206 10.1943 4.41106 10.496 4.32822C10.5428 4.31534 10.5231 4.24522 10.476 4.25567ZM10.8471 6.15458C10.5418 6.22228 10.2384 6.30227 9.93618 6.38262C9.89184 6.3944 9.91055 6.46143 9.95508 6.45118C10.2599 6.38097 10.5655 6.30996 10.8671 6.22712C10.914 6.21424 10.8942 6.14413 10.8471 6.15458ZM11.1774 7.8897C10.872 7.9574 10.5687 8.03739 10.2664 8.11774C10.2221 8.12952 10.2408 8.19656 10.2853 8.1863C10.5901 8.11609 10.8957 8.04509 11.1974 7.96224C11.2442 7.94936 11.2245 7.87925 11.1774 7.8897ZM11.538 9.62482C11.2327 9.69252 10.9294 9.77251 10.6271 9.85286C10.5828 9.86465 10.6015 9.93168 10.646 9.92142C10.9508 9.85121 11.2564 9.78021 11.558 9.69737C11.6049 9.68448 11.5852 9.61437 11.538 9.62482ZM11.8301 11.0624C11.5248 11.1301 11.2215 11.2101 10.9192 11.2905C10.8749 11.3022 10.8936 11.3693 10.9381 11.359C11.2429 11.2888 11.5485 11.2178 11.8501 11.135C11.897 11.1221 11.8773 11.052 11.8301 11.0624ZM6.92649 7.45798C6.67531 6.22011 5.88834 2.76996 5.85552 2.62912C5.84539 2.58569 5.77989 2.60419 5.78894 2.64747C6.05901 3.93935 6.78245 7.1836 6.85296 7.47825C6.86445 7.52627 6.93618 7.50575 6.92649 7.45798ZM7.68108 10.5282C7.63472 10.3098 7.58356 10.1058 7.52734 9.87619C7.51032 9.80668 7.50082 9.72761 7.46533 9.66474C7.44871 9.63531 7.40514 9.64964 7.40388 9.68139C7.40141 9.74325 7.41067 9.75085 7.49693 10.1131C7.53164 10.2589 7.56733 10.4041 7.60655 10.5488C7.61965 10.597 7.69136 10.5766 7.68108 10.5282Z" fill="#1B136A"/>
  <path d="M23.746 4.75779C23.9097 4.31667 23.781 3.86205 23.4584 3.74235C23.1359 3.62266 22.7417 3.88322 22.578 4.32433C22.4143 4.76545 22.5431 5.22008 22.8656 5.33977C23.1882 5.45947 23.5823 5.19891 23.746 4.75779Z" fill="#4A53E2"/>
  <path d="M18.7058 20.1827C18.0328 20.8172 17.3598 21.4518 16.6868 22.0863C16.5697 21.1586 16.4526 20.2308 16.3354 19.3031C18.147 14.4216 19.9585 9.54015 21.7701 4.65869L24.1405 5.53836L18.7058 20.1827Z" fill="#4A53E2"/>
  <path d="M24.6736 6.7168C24.7598 6.40132 24.8909 6.04757 24.804 5.71851C24.7553 5.53383 24.6237 5.36488 24.4502 5.30526C24.405 5.28972 24.3827 5.23879 24.3993 5.19397C24.416 5.14898 24.3931 5.09897 24.3481 5.08227L21.9517 4.19295C21.9067 4.17626 21.8567 4.19919 21.84 4.24418L21.7135 4.58511C21.6968 4.6301 21.7197 4.6801 21.7647 4.6968L24.1706 5.58966C24.2026 5.60152 24.2257 5.63089 24.2274 5.66492C24.2442 6.00963 24.1442 6.21677 23.5237 8.15439C23.4318 8.44137 23.3013 8.74617 23.3124 9.05274C23.325 9.40202 23.5339 9.63567 23.7018 9.52971C23.7735 9.48445 23.795 9.39923 23.8857 9.15659C24.1852 8.35533 24.4481 7.54192 24.6736 6.7168Z" fill="#3EB489"/>
  <path d="M23.0179 8.56325L20.6475 7.68359L19.175 11.6514L21.5454 12.5311L23.0179 8.56325Z" fill="#B4B2FA"/>
  <path d="M14.7267 19.4359L12.7621 19.6397L11.5984 3.46603C11.5801 3.21175 11.767 2.98887 12.0206 2.96257C12.2792 2.93574 12.5123 3.11906 12.5473 3.37667L14.7267 19.4359Z" fill="#1B136A"/>
  <path d="M12.2716 1.50943C12.2133 1.40588 12.1396 1.28159 12.0427 1.26059C11.9958 1.25042 11.9562 1.27251 11.9281 1.31238C11.7756 1.05644 11.5507 0.981665 11.3595 1.04037C11.3142 1.05429 11.3198 1.14035 11.3484 1.17804C11.5029 1.38155 11.405 1.70095 11.3397 1.90807C11.196 2.36389 11.2228 2.33408 11.265 2.61925C11.3198 2.98938 11.5257 3.24674 11.7122 3.3352C11.8978 3.42321 12.1381 3.395 12.2989 3.28087C12.4963 3.14077 12.5402 2.90671 12.5527 2.68766C12.5749 2.29931 12.4606 1.84488 12.2716 1.50943Z" fill="#3EB489"/>
  <path d="M18.7254 18.7974L16.431 19.3687L13.0112 5.63513C13.2231 4.76001 13.435 3.88489 13.6469 3.00977C14.1998 3.69445 14.7527 4.37913 15.3056 5.06382C16.4455 9.64168 17.5854 14.2195 18.7254 18.7974Z" fill="#FF6A00"/>
  <path d="M13.0112 5.63513C13.0112 5.63513 14.3679 6.13659 15.3056 5.06382L13.6469 3.00977L13.0112 5.63513Z" fill="#3EB489"/>
  <path d="M13.5323 3.48313C13.6626 3.64498 13.8752 3.58168 13.9625 3.40057L13.647 3.00977L13.5323 3.48313ZM16.8413 13.6071C16.8269 13.6071 16.8139 13.5974 16.8102 13.5829L14.8463 5.69596C14.8421 5.67883 14.8525 5.66145 14.8697 5.65717C14.8867 5.65305 14.9042 5.66336 14.9084 5.68052L16.8724 13.5674C16.8774 13.5876 16.8621 13.6071 16.8413 13.6071ZM16.3328 13.8568C16.3185 13.8568 16.3054 13.847 16.3018 13.8325L14.3379 5.94561C14.3337 5.92849 14.3441 5.91111 14.3613 5.90683C14.3783 5.90274 14.3958 5.91302 14.4 5.93017L16.3639 13.817C16.3689 13.8372 16.3537 13.8568 16.3328 13.8568ZM15.5985 13.9166C15.5842 13.9166 15.5711 13.9069 15.5675 13.8923L13.6036 6.00542C13.5994 5.9883 13.6098 5.97092 13.6269 5.96664C13.6441 5.96252 13.6614 5.97283 13.6657 5.98999L15.6296 13.8769C15.6346 13.897 15.6194 13.9166 15.5985 13.9166Z" fill="#1B136A"/>
  <path d="M15.3856 19.1124L13.5281 18.0844L19.6815 6.96567C20.3561 6.52008 21.0307 6.0745 21.7053 5.62891C21.6499 6.41717 21.5945 7.20542 21.5391 7.99368C19.4879 11.6999 17.4368 15.4062 15.3856 19.1124Z" fill="#3EB489"/>
  <path d="M19.6814 6.96567C19.6814 6.96567 20.2664 8.1252 21.5389 7.99368L21.7052 5.62891L19.6814 6.96567Z" fill="#FF6A00"/>
  <path d="M21.3404 5.8695C21.327 6.05558 21.5055 6.14401 21.6737 6.07839L21.7053 5.62848L21.3404 5.8695ZM17.3417 14.5589C17.3176 14.5589 17.3019 14.5329 17.3137 14.5114L20.8475 8.1262C20.8561 8.1107 20.8756 8.10517 20.891 8.1137C20.9065 8.12226 20.9121 8.14173 20.9035 8.1572L17.3697 14.5424C17.3639 14.553 17.353 14.5589 17.3417 14.5589ZM16.8548 14.412C16.8307 14.412 16.815 14.386 16.8269 14.3645L20.3606 7.97926C20.3692 7.96376 20.3887 7.95826 20.4041 7.96676C20.4196 7.97532 20.4252 7.99479 20.4166 8.01026L16.8829 14.3955C16.877 14.4061 16.8661 14.412 16.8548 14.412ZM16.3356 14.0022C16.3115 14.0022 16.2957 13.9761 16.3076 13.9547L19.8414 7.56938C19.85 7.55392 19.8695 7.54832 19.8849 7.55688C19.9004 7.56545 19.906 7.58492 19.8974 7.60038L16.3636 13.9857C16.3578 13.9962 16.3468 14.0022 16.3356 14.0022ZM18.3687 2.43661C18.275 2.59702 17.9242 3.49048 17.8143 3.9405C17.8014 3.99327 17.8768 4.0128 17.8948 3.96269C18.0334 3.57636 18.0862 3.36032 18.2953 2.83683C18.344 2.71489 18.4041 2.59315 18.4422 2.46758C18.4555 2.4237 18.3916 2.39747 18.3687 2.43661ZM17.737 4.4847C17.7156 4.47883 17.699 4.49201 17.6913 4.5106C17.6452 4.62208 17.5968 4.73292 17.5539 4.84565C17.5395 4.88348 17.6032 4.91078 17.6199 4.87344C17.6704 4.76039 17.7156 4.64476 17.7629 4.53033C17.7705 4.51181 17.7546 4.48954 17.737 4.4847ZM23.5821 5.97147C23.4846 6.08319 23.4291 6.24814 23.3631 6.38066C23.2982 6.51122 22.8793 7.36083 22.744 7.67144C22.7237 7.71818 22.7885 7.75962 22.8143 7.71253C22.9742 7.42082 23.404 6.53964 23.4549 6.43432C23.6162 6.10065 23.6327 6.08063 23.6467 6.00907C23.6535 5.97435 23.6096 5.94004 23.5821 5.97147ZM24.744 5.86179C24.7402 5.82231 24.6805 5.80749 24.6701 5.85179C24.6335 6.00854 24.6313 6.17711 24.6071 6.33651C24.561 6.6406 24.4863 6.96114 24.4037 7.233C24.3564 7.38896 24.2902 7.54074 24.2497 7.69841C24.2373 7.74655 24.3069 7.7787 24.3316 7.73294C24.4291 7.55285 24.6216 6.96788 24.7077 6.33268C24.7283 6.18087 24.7588 6.015 24.744 5.86179ZM20.3781 6.66764C20.2633 6.73075 20.2674 6.73033 20.1137 6.83064C20.0268 6.88737 19.9371 6.94229 19.8576 7.00914C19.8192 7.04135 19.8681 7.09641 19.9088 7.07551C19.999 7.02917 20.0519 6.98896 20.2955 6.82397C20.3403 6.79363 20.3814 6.76031 20.4237 6.72672C20.4581 6.69943 20.4142 6.64781 20.3781 6.66764ZM19.0174 8.31016C18.8989 8.4768 18.9276 8.4574 18.3398 9.51747C18.1158 9.92122 17.8925 10.3255 17.683 10.7369C17.6608 10.7805 17.7234 10.8178 17.7488 10.7754C18.0541 10.2668 18.3481 9.7268 18.7765 8.952C18.8864 8.75333 19.0149 8.55562 19.1021 8.34589C19.1236 8.29418 19.0455 8.27059 19.0174 8.31016ZM14.287 5.55857C14.181 5.61529 14.0536 5.71176 13.8165 5.72327C13.6469 5.73149 13.4779 5.68859 13.3304 5.60497C13.2846 5.57896 13.2486 5.64467 13.2899 5.67437C13.6272 5.91688 14.144 5.83997 14.3419 5.62978C14.3774 5.5921 14.3327 5.53407 14.287 5.55857ZM14.3359 10.3982L13.6277 7.92773C13.5893 7.79576 13.5599 7.65297 13.4979 7.52982C13.483 7.50006 13.4306 7.51322 13.4336 7.54724C13.4448 7.67482 13.4643 7.70913 13.6503 8.37993L14.1126 10.0183C14.2984 10.674 14.3065 10.7218 14.3603 10.8448C14.3823 10.895 14.4477 10.8554 14.4413 10.8106C14.4214 10.671 14.3743 10.5337 14.3359 10.3982Z" fill="#1B136A"/>
  <path d="M12.2238 7.91733C12.0383 4.59796 12.0395 4.67676 12.0259 4.59463C12.0176 4.54438 11.9433 4.55982 11.9409 4.60614C11.9333 4.75221 11.9421 4.76259 11.9859 5.55687C12.1436 8.42097 12.1338 8.29908 12.1565 8.42059C12.1659 8.47121 12.2382 8.45498 12.2415 8.40909C12.2533 8.24655 12.2329 8.07998 12.2238 7.91733ZM12.3564 9.19914C12.3543 9.17949 12.341 9.16255 12.3198 9.16255C12.3012 9.16255 12.2816 9.17933 12.2832 9.19914C12.2908 9.29429 12.2853 9.44469 12.3135 9.58519C12.3231 9.63292 12.3958 9.62047 12.3965 9.57397C12.3985 9.44135 12.3641 9.27284 12.3564 9.19914ZM16.9713 7.00581C16.817 7.51066 16.6475 8.01034 16.5048 8.51901C16.4915 8.56658 16.563 8.5856 16.5784 8.53928C16.7445 8.03786 16.8836 7.52895 17.0379 7.02416C17.051 6.98158 16.9843 6.96338 16.9713 7.00581Z" fill="#E5E5FF"/>
  <path d="M20.4344 27.6515H8.76985L7.44971 12.6768H21.7545L20.4344 27.6515Z" fill="#B4B2FA"/>
  <path d="M22.1683 12.2832H7.03589V13.9383H22.1683V12.2832Z" fill="#E5E5FF"/>
  <path d="M8.70013 21.217C8.46056 19.1366 8.19307 16.7729 8.04229 15.66C8.03419 15.6002 7.93024 15.6137 7.93602 15.6744C8.08886 17.2791 8.28881 18.88 8.47386 20.4812C8.59188 21.5026 8.60024 21.6241 8.65011 21.8355C8.66344 21.892 8.75019 21.879 8.7503 21.8219C8.75071 21.6195 8.72326 21.4178 8.70013 21.217ZM16.3074 13.7124C15.9767 13.7158 9.20151 13.8827 8.89748 13.9091C8.83736 13.9143 8.83567 14.0016 8.89748 14.0039C9.37855 14.0224 9.86529 13.9912 10.3465 13.981C10.3569 13.9808 15.9753 13.8539 16.3074 13.8412C16.3899 13.8381 16.3907 13.7115 16.3074 13.7124Z" fill="#1B136A"/>
  <path d="M20.9794 27.1282C20.7323 27.6405 20.4852 28.1527 20.238 28.6649C20.9659 29.3569 21.6938 30.0488 22.4217 30.7408C24.887 29.7818 27.3523 28.8228 29.8175 27.8638V26.5377C28.9653 25.9887 28.1131 25.4396 27.2609 24.8906C25.1671 25.6365 23.0732 26.3824 20.9794 27.1282Z" fill="#3EB489"/>
  <path d="M27.2608 24.8906L23.1028 26.3718L25.3602 28.4407V29.5643L29.8174 27.8638V26.5377L27.2608 24.8906Z" fill="#4A53E2"/>
  <path d="M23.055 29.0152C22.9168 28.8611 22.7585 28.7215 22.6108 28.5765C21.6654 27.6482 21.5544 27.5329 21.2694 27.2692C21.2388 27.2408 21.1946 27.2848 21.2235 27.315C21.4924 27.5957 21.6092 27.7043 22.5429 28.6234C22.6939 28.772 22.8396 28.9317 22.9998 29.0704C23.0377 29.1032 23.0887 29.0529 23.055 29.0152ZM22.8944 29.6465C22.8629 29.7135 22.651 30.1705 22.6122 30.282C22.601 30.3144 22.6507 30.3346 22.6672 30.3051C22.7237 30.2043 22.9227 29.7481 22.952 29.6802C22.9687 29.6415 22.9128 29.6072 22.8944 29.6465ZM29.4356 26.7864L24.037 28.9005C24.0012 28.9149 24.0161 28.9735 24.0532 28.9595C25.4363 28.4367 26.2797 28.0964 29.4554 26.858C29.4994 26.8408 29.4802 26.769 29.4356 26.7864Z" fill="#1B136A"/>
  <path d="M26.2907 27.2864C27.0503 27.2864 27.666 26.9511 27.666 26.5375C27.666 26.1239 27.0503 25.7886 26.2907 25.7886C25.5311 25.7886 24.9154 26.1239 24.9154 26.5375C24.9154 26.9511 25.5311 27.2864 26.2907 27.2864Z" fill="#E5E5FF"/>
  <path d="M14.6073 28.5785C17.8313 28.5785 20.4448 28.1635 20.4448 27.6516C20.4448 27.1396 17.8313 26.7246 14.6073 26.7246C11.3833 26.7246 8.76978 27.1396 8.76978 27.6516C8.76978 28.1635 11.3833 28.5785 14.6073 28.5785Z" fill="#B4B2FA"/>
  <path d="M17.3401 29.2423C17.8463 29.7233 18.3526 30.2043 18.8589 30.6854C18.1728 30.921 17.4866 31.1567 16.8004 31.3923C12.2908 30.2604 7.78113 29.1286 3.27148 27.9967L3.81111 25.8467L17.3401 29.2423Z" fill="#4A53E2"/>
  <path d="M2.74816 27.5238L3.12952 26.0043C3.17233 25.8337 3.34559 25.7299 3.51618 25.7728L4.8522 26.1081L4.31259 28.2581L2.98893 27.9259C2.81152 27.8814 2.70363 27.7012 2.74816 27.5238Z" fill="#3EB489"/>
  <path d="M5.98609 27.9896C5.75082 27.9349 5.49901 27.8467 5.25724 27.8366C5.20263 27.8343 5.17903 27.9205 5.23044 27.9434C5.45201 28.042 5.71502 28.0751 5.95065 28.1308C10.4013 29.1834 8.62043 28.7576 11.1959 29.3462C11.2686 29.3629 11.2969 29.2513 11.2242 29.2338C8.06897 28.4744 10.5118 29.0429 5.98609 27.9896ZM12.808 29.6792C12.7318 29.6648 12.7016 29.781 12.7784 29.7967C13.2403 29.8912 13.702 29.9846 14.1655 30.0707C14.2438 30.0853 14.275 29.9661 14.1959 29.9498C13.7342 29.8543 13.2713 29.7663 12.808 29.6792ZM7.18516 27.3883C7.1091 27.3722 7.07978 27.4862 7.15565 27.5058C8.17817 27.7695 12.0804 28.6899 13.0087 28.8828C13.0892 28.8996 13.1201 28.7795 13.0399 28.7585C12.1288 28.52 8.22808 27.609 7.18516 27.3883Z" fill="#E6E6FF"/>
  <path d="M16.8004 31.3922C16.8004 31.3922 16.3474 29.9107 17.3401 29.2422L18.8589 30.6853L16.8004 31.3922Z" fill="#3EB489"/>
  <path d="M18.2873 30.8819C18.2873 30.8819 18.016 30.6032 18.3612 30.2126L18.859 30.6856L18.2873 30.8819ZM17.0866 29.3774C16.6002 29.7406 16.4473 30.4898 16.6953 31.0311C16.7244 31.0945 16.8294 31.0479 16.8071 30.9823C16.7189 30.7228 16.6984 30.4437 16.763 30.1764C16.8287 29.9047 16.9748 29.6782 17.1654 29.4772C17.2135 29.4265 17.1469 29.3324 17.0866 29.3774ZM8.84632 27.0562C8.05809 26.8392 7.24647 26.6938 6.44766 26.5207C5.64675 26.3472 4.845 26.1777 4.0433 26.0078C3.94528 25.987 3.90609 26.1376 4.00488 26.1594C4.80495 26.336 5.60491 26.513 6.40577 26.686C7.20507 26.8587 8.00458 27.0617 8.81236 27.1902C8.89878 27.2039 8.93367 27.0802 8.84632 27.0562ZM11.711 27.7912C11.6203 27.7678 11.5849 27.9072 11.6752 27.9323C12.8996 28.2714 12.9598 28.2985 13.1923 28.3326C13.2791 28.3454 13.3056 28.2339 13.2253 28.2022C13.0074 28.1159 12.9403 28.1087 11.711 27.7912ZM27.5082 7.71705C27.3793 7.75866 27.2683 7.87598 27.1651 7.96059L24.6342 10.0458C24.36 10.273 24.082 10.4979 23.8218 10.7412C23.7779 10.7822 23.8369 10.8628 23.8873 10.8261C24.3882 10.4618 24.8574 10.0504 25.3349 9.65627C27.5553 7.82314 27.5078 7.86844 27.5565 7.77987C27.5736 7.74863 27.545 7.70517 27.5082 7.71705ZM26.5277 11.5134C26.2246 11.468 26.0108 11.4618 24.7996 11.384C24.7142 11.3785 24.7146 11.5113 24.7996 11.5169C26.1536 11.6061 26.2374 11.6178 26.5143 11.6125C26.5687 11.6115 26.586 11.5221 26.5277 11.5134ZM6.10896 9.86003C6.01101 9.73202 5.9374 9.67041 5.43318 9.19011L2.50395 6.41463C2.45737 6.37147 2.38844 6.43966 2.434 6.48459C3.35336 7.39102 4.18152 8.1752 5.63568 9.56973C5.76498 9.69373 5.89087 9.82798 6.03847 9.93053C6.07928 9.95888 6.1403 9.90099 6.10896 9.86003ZM5.63347 11.0422C5.48458 10.9471 5.30155 10.8931 5.13815 10.8276C3.65049 10.232 3.71334 10.2468 3.55384 10.2046C3.49654 10.1894 3.45942 10.2719 3.51294 10.3015C3.64115 10.3727 3.54776 10.3271 5.05696 10.9384C5.22956 11.0083 5.40935 11.1026 5.59257 11.1392C5.65091 11.1509 5.68564 11.0756 5.63347 11.0422Z" fill="#1B136A"/>
</svg>